<svg width="32" height="32" viewBox="0 0 32 32" fill="none" xmlns="http://www.w3.org/2000/svg">
<path d="M24.4339 7.4839L5.16841 14.9146C3.8535 15.4422 3.8613 16.1756 4.92874 16.5026L9.73361 18.0023L11.5721 23.6389C11.7956 24.2558 11.6854 24.5005 12.3332 24.5005C12.8332 24.5005 13.0549 24.2725 13.3334 24.0005C13.5105 23.8273 14.5618 22.8051 15.7357 21.6638L20.7337 25.3565C21.6533 25.8639 22.3174 25.601 22.5464 24.5023L25.8272 9.04205C26.1631 7.69538 25.3138 7.08454 24.4339 7.4839ZM10.4877 17.6578L21.3179 10.8249C21.8585 10.497 22.3543 10.6733 21.9472 11.0346L12.6738 19.4016L12.3127 23.2528L10.4877 17.6578Z" fill="#999999"/>
</svg>
