<svg width="36" height="36" viewBox="0 0 36 36" fill="none" xmlns="http://www.w3.org/2000/svg">
<path d="M25.5 13.755C25.2189 13.4757 24.8388 13.3188 24.4425 13.3188C24.0462 13.3188 23.666 13.4757 23.385 13.755L18 19.065L12.69 13.755C12.4089 13.4757 12.0288 13.3188 11.6325 13.3188C11.2362 13.3188 10.856 13.4757 10.575 13.755C10.4344 13.8945 10.3228 14.0604 10.2466 14.2432C10.1705 14.426 10.1313 14.622 10.1313 14.82C10.1313 15.0181 10.1705 15.2141 10.2466 15.3969C10.3228 15.5797 10.4344 15.7456 10.575 15.885L16.935 22.245C17.0744 22.3856 17.2403 22.4972 17.4231 22.5734C17.6059 22.6495 17.802 22.6887 18 22.6887C18.198 22.6887 18.3941 22.6495 18.5768 22.5734C18.7596 22.4972 18.9255 22.3856 19.065 22.245L25.5 15.885C25.6406 15.7456 25.7522 15.5797 25.8283 15.3969C25.9045 15.2141 25.9437 15.0181 25.9437 14.82C25.9437 14.622 25.9045 14.426 25.8283 14.2432C25.7522 14.0604 25.6406 13.8945 25.5 13.755Z" fill="white"/>
</svg>
