<svg width="20" height="20" viewBox="0 0 20 20" fill="none" xmlns="http://www.w3.org/2000/svg">
<path d="M15.8333 3.33301H4.16663C3.50358 3.33301 2.8677 3.5964 2.39886 4.06524C1.93002 4.53408 1.66663 5.16997 1.66663 5.83301V14.1663C1.66663 14.8294 1.93002 15.4653 2.39886 15.9341C2.8677 16.4029 3.50358 16.6663 4.16663 16.6663H15.8333C16.4963 16.6663 17.1322 16.4029 17.6011 15.9341C18.0699 15.4653 18.3333 14.8294 18.3333 14.1663V5.83301C18.3333 5.16997 18.0699 4.53408 17.6011 4.06524C17.1322 3.5964 16.4963 3.33301 15.8333 3.33301ZM4.16663 4.99967H15.8333C16.0543 4.99967 16.2663 5.08747 16.4225 5.24375C16.5788 5.40003 16.6666 5.61199 16.6666 5.83301L9.99996 9.89967L3.33329 5.83301C3.33329 5.61199 3.42109 5.40003 3.57737 5.24375C3.73365 5.08747 3.94561 4.99967 4.16663 4.99967ZM16.6666 14.1663C16.6666 14.3874 16.5788 14.5993 16.4225 14.7556C16.2663 14.9119 16.0543 14.9997 15.8333 14.9997H4.16663C3.94561 14.9997 3.73365 14.9119 3.57737 14.7556C3.42109 14.5993 3.33329 14.3874 3.33329 14.1663V7.73301L9.56663 11.5413C9.69331 11.6145 9.83701 11.653 9.98329 11.653C10.1296 11.653 10.2733 11.6145 10.4 11.5413L16.6666 7.73301V14.1663Z" fill="#111111"/>
</svg>
