<svg width="44" height="45" viewBox="0 0 44 45" fill="none" xmlns="http://www.w3.org/2000/svg">
<path d="M40.3333 17.9769C40.2175 17.6416 40.007 17.347 39.7271 17.129C39.4472 16.9109 39.1101 16.7788 38.7567 16.7486L28.325 15.2269L23.65 5.74856C23.4999 5.43859 23.2655 5.17718 22.9737 4.99428C22.6818 4.81137 22.3444 4.71436 22 4.71436C21.6556 4.71436 21.3182 4.81137 21.0263 4.99428C20.7345 5.17718 20.5001 5.43859 20.35 5.74856L15.675 15.2086L5.24333 16.7486C4.90402 16.7968 4.58503 16.9392 4.32254 17.1595C4.06006 17.3799 3.86459 17.6694 3.75833 17.9952C3.66107 18.3136 3.65234 18.6525 3.73308 18.9755C3.81383 19.2985 3.98101 19.5934 4.21667 19.8286L11.7883 27.1619L9.955 37.5752C9.88098 37.9207 9.90835 38.2801 10.0338 38.6104C10.1593 38.9406 10.3775 39.2276 10.6622 39.4368C10.9469 39.646 11.2859 39.7684 11.6386 39.7894C11.9913 39.8104 12.3425 39.7291 12.65 39.5552L22 34.6602L31.35 39.5552C31.6073 39.7004 31.8979 39.7762 32.1933 39.7752C32.5817 39.7766 32.9604 39.6546 33.275 39.4269C33.5594 39.2231 33.7796 38.9422 33.9096 38.6174C34.0395 38.2925 34.0738 37.9373 34.0083 37.5936L32.175 27.1802L39.7467 19.8469C40.0114 19.6226 40.207 19.3279 40.3108 18.9969C40.4147 18.6658 40.4225 18.3122 40.3333 17.9769ZM29.0583 25.3102C28.8461 25.5163 28.687 25.7707 28.5944 26.0516C28.5018 26.3325 28.4786 26.6317 28.5267 26.9236L29.8467 34.6236L22.9533 30.9569C22.6854 30.8244 22.3906 30.7554 22.0917 30.7554C21.7928 30.7554 21.4979 30.8244 21.23 30.9569L14.3367 34.6236L15.6567 26.9236C15.7048 26.6317 15.6815 26.3325 15.589 26.0516C15.4964 25.7707 15.3372 25.5163 15.125 25.3102L9.625 19.8102L17.3433 18.6919C17.6403 18.6506 17.9227 18.537 18.1656 18.3613C18.4085 18.1855 18.6046 17.9528 18.7367 17.6836L22 10.6986L25.4467 17.7019C25.5787 17.9711 25.7748 18.2038 26.0177 18.3796C26.2607 18.5554 26.543 18.6689 26.84 18.7102L34.5583 19.8286L29.0583 25.3102Z" fill="white"/>
</svg>
