<svg width="44" height="45" viewBox="0 0 44 45" fill="none" xmlns="http://www.w3.org/2000/svg">
<path d="M21.0833 36.915H10.0833C9.59708 36.915 9.13077 36.7219 8.78695 36.3781C8.44313 36.0343 8.24998 35.5679 8.24998 35.0817V9.41504C8.24998 8.92881 8.44313 8.46249 8.78695 8.11868C9.13077 7.77486 9.59708 7.58171 10.0833 7.58171H19.25V13.0817C19.25 14.5404 19.8294 15.9393 20.8609 16.9708C21.8923 18.0022 23.2913 18.5817 24.75 18.5817H30.25V27.7484C30.25 28.2346 30.4431 28.7009 30.7869 29.0447C31.1308 29.3885 31.5971 29.5817 32.0833 29.5817C32.5695 29.5817 33.0359 29.3885 33.3797 29.0447C33.7235 28.7009 33.9166 28.2346 33.9166 27.7484V16.7484C33.9166 16.7484 33.9166 16.7484 33.9166 16.6384C33.8976 16.47 33.8607 16.304 33.8066 16.1434V15.9784C33.7185 15.7899 33.6009 15.6166 33.4583 15.465L22.4583 4.46504C22.3068 4.32244 22.1335 4.20485 21.945 4.11671C21.8843 4.10609 21.8223 4.10609 21.7616 4.11671C21.5834 4.02138 21.3918 3.9534 21.1933 3.91504H10.0833C8.62462 3.91504 7.22568 4.4945 6.19423 5.52595C5.16278 6.5574 4.58331 7.95635 4.58331 9.41504V35.0817C4.58331 36.5404 5.16278 37.9393 6.19423 38.9708C7.22568 40.0022 8.62462 40.5817 10.0833 40.5817H21.0833C21.5695 40.5817 22.0359 40.3885 22.3797 40.0447C22.7235 39.7009 22.9166 39.2346 22.9166 38.7484C22.9166 38.2621 22.7235 37.7958 22.3797 37.452C22.0359 37.1082 21.5695 36.915 21.0833 36.915ZM22.9166 10.1667L27.665 14.915H24.75C24.2638 14.915 23.7974 14.7219 23.4536 14.3781C23.1098 14.0343 22.9166 13.5679 22.9166 13.0817V10.1667ZM13.75 25.915H24.75C25.2362 25.915 25.7025 25.7219 26.0463 25.3781C26.3902 25.0343 26.5833 24.5679 26.5833 24.0817C26.5833 23.5955 26.3902 23.1292 26.0463 22.7853C25.7025 22.4415 25.2362 22.2484 24.75 22.2484H13.75C13.2637 22.2484 12.7974 22.4415 12.4536 22.7853C12.1098 23.1292 11.9166 23.5955 11.9166 24.0817C11.9166 24.5679 12.1098 25.0343 12.4536 25.3781C12.7974 25.7219 13.2637 25.915 13.75 25.915ZM21.0833 29.5817H13.75C13.2637 29.5817 12.7974 29.7749 12.4536 30.1187C12.1098 30.4625 11.9166 30.9288 11.9166 31.415C11.9166 31.9013 12.1098 32.3676 12.4536 32.7114C12.7974 33.0552 13.2637 33.2484 13.75 33.2484H21.0833C21.5695 33.2484 22.0359 33.0552 22.3797 32.7114C22.7235 32.3676 22.9166 31.9013 22.9166 31.415C22.9166 30.9288 22.7235 30.4625 22.3797 30.1187C22.0359 29.7749 21.5695 29.5817 21.0833 29.5817ZM13.75 18.5817H15.5833C16.0695 18.5817 16.5359 18.3886 16.8797 18.0447C17.2235 17.7009 17.4166 17.2346 17.4166 16.7484C17.4166 16.2621 17.2235 15.7958 16.8797 15.452C16.5359 15.1082 16.0695 14.915 15.5833 14.915H13.75C13.2637 14.915 12.7974 15.1082 12.4536 15.452C12.1098 15.7958 11.9166 16.2621 11.9166 16.7484C11.9166 17.2346 12.1098 17.7009 12.4536 18.0447C12.7974 18.3886 13.2637 18.5817 13.75 18.5817ZM38.885 30.1134C38.7145 29.9415 38.5118 29.8051 38.2884 29.7121C38.065 29.619 37.8253 29.5711 37.5833 29.5711C37.3413 29.5711 37.1017 29.619 36.8783 29.7121C36.6548 29.8051 36.4521 29.9415 36.2816 30.1134L30.25 36.1634L27.885 33.78C27.714 33.6091 27.5111 33.4735 27.2878 33.381C27.0644 33.2885 26.8251 33.2409 26.5833 33.2409C26.3416 33.2409 26.1022 33.2885 25.8789 33.381C25.6555 33.4735 25.4526 33.6091 25.2816 33.78C25.1107 33.951 24.9751 34.1539 24.8826 34.3772C24.7901 34.6006 24.7425 34.84 24.7425 35.0817C24.7425 35.3234 24.7901 35.5628 24.8826 35.7862C24.9751 36.0095 25.1107 36.2124 25.2816 36.3834L28.9483 40.05C29.1187 40.2219 29.3215 40.3583 29.5449 40.4513C29.7683 40.5444 30.008 40.5923 30.25 40.5923C30.492 40.5923 30.7316 40.5444 30.955 40.4513C31.1784 40.3583 31.3812 40.2219 31.5516 40.05L38.885 32.7167C39.0568 32.5463 39.1932 32.3435 39.2863 32.1201C39.3794 31.8967 39.4273 31.6571 39.4273 31.415C39.4273 31.173 39.3794 30.9334 39.2863 30.71C39.1932 30.4866 39.0568 30.2838 38.885 30.1134Z" fill="white"/>
</svg>
