<svg width="44" height="45" viewBox="0 0 44 45" fill="none" xmlns="http://www.w3.org/2000/svg">
<path d="M14.6667 14.915C14.1804 14.915 13.7141 15.1082 13.3703 15.452C13.0265 15.7958 12.8333 16.2621 12.8333 16.7484C12.8333 17.2346 13.0265 17.7009 13.3703 18.0447C13.7141 18.3886 14.1804 18.5817 14.6667 18.5817H16.5C16.9862 18.5817 17.4525 18.3886 17.7964 18.0447C18.1402 17.7009 18.3333 17.2346 18.3333 16.7484C18.3333 16.2621 18.1402 15.7958 17.7964 15.452C17.4525 15.1082 16.9862 14.915 16.5 14.915H14.6667ZM23.8333 36.915H11C10.5138 36.915 10.0475 36.7219 9.70364 36.3781C9.35982 36.0343 9.16667 35.5679 9.16667 35.0817V9.41504C9.16667 8.92881 9.35982 8.46249 9.70364 8.11868C10.0475 7.77486 10.5138 7.58171 11 7.58171H20.1667V13.0817C20.1667 14.5404 20.7461 15.9393 21.7776 16.9708C22.809 18.0022 24.208 18.5817 25.6667 18.5817H31.1667V22.2484C31.1667 22.7346 31.3598 23.2009 31.7036 23.5447C32.0475 23.8885 32.5138 24.0817 33 24.0817C33.4862 24.0817 33.9525 23.8885 34.2964 23.5447C34.6402 23.2009 34.8333 22.7346 34.8333 22.2484V16.7484C34.8333 16.7484 34.8333 16.7484 34.8333 16.6384C34.8142 16.47 34.7774 16.304 34.7233 16.1434V15.9784C34.6352 15.7899 34.5176 15.6166 34.375 15.465L23.375 4.46504C23.2234 4.32244 23.0502 4.20485 22.8617 4.11671C22.801 4.10609 22.739 4.10609 22.6783 4.11671C22.5001 4.02138 22.3085 3.9534 22.11 3.91504H11C9.54131 3.91504 8.14236 4.4945 7.11091 5.52595C6.07946 6.5574 5.5 7.95635 5.5 9.41504V35.0817C5.5 36.5404 6.07946 37.9393 7.11091 38.9708C8.14236 40.0022 9.54131 40.5817 11 40.5817H23.8333C24.3196 40.5817 24.7859 40.3885 25.1297 40.0447C25.4735 39.7009 25.6667 39.2346 25.6667 38.7484C25.6667 38.2621 25.4735 37.7958 25.1297 37.452C24.7859 37.1082 24.3196 36.915 23.8333 36.915ZM23.8333 10.1667L28.5817 14.915H25.6667C25.1804 14.915 24.7141 14.7219 24.3703 14.3781C24.0265 14.0343 23.8333 13.5679 23.8333 13.0817V10.1667ZM25.6667 22.2484H14.6667C14.1804 22.2484 13.7141 22.4415 13.3703 22.7853C13.0265 23.1292 12.8333 23.5955 12.8333 24.0817C12.8333 24.5679 13.0265 25.0343 13.3703 25.3781C13.7141 25.7219 14.1804 25.915 14.6667 25.915H25.6667C26.1529 25.915 26.6192 25.7219 26.963 25.3781C27.3068 25.0343 27.5 24.5679 27.5 24.0817C27.5 23.5955 27.3068 23.1292 26.963 22.7853C26.6192 22.4415 26.1529 22.2484 25.6667 22.2484ZM37.9683 33.78C37.7979 33.6082 37.5951 33.4718 37.3717 33.3787C37.1483 33.2857 36.9087 33.2377 36.6667 33.2377C36.4246 33.2377 36.185 33.2857 35.9616 33.3787C35.7382 33.4718 35.5354 33.6082 35.365 33.78L34.8333 34.33V29.5817C34.8333 29.0955 34.6402 28.6292 34.2964 28.2853C33.9525 27.9415 33.4862 27.7484 33 27.7484C32.5138 27.7484 32.0475 27.9415 31.7036 28.2853C31.3598 28.6292 31.1667 29.0955 31.1667 29.5817V34.33L30.635 33.78C30.2898 33.4348 29.8216 33.2409 29.3333 33.2409C28.8451 33.2409 28.3769 33.4348 28.0317 33.78C27.6864 34.1253 27.4925 34.5935 27.4925 35.0817C27.4925 35.5699 27.6864 36.0381 28.0317 36.3834L31.6983 40.05C31.8727 40.2169 32.0783 40.3478 32.3033 40.435C32.5228 40.532 32.7601 40.5821 33 40.5821C33.2399 40.5821 33.4772 40.532 33.6967 40.435C33.9217 40.3478 34.1273 40.2169 34.3017 40.05L37.9683 36.3834C38.1402 36.2129 38.2766 36.0102 38.3696 35.7868C38.4627 35.5634 38.5106 35.3237 38.5106 35.0817C38.5106 34.8397 38.4627 34.6001 38.3696 34.3766C38.2766 34.1532 38.1402 33.9505 37.9683 33.78ZM22 33.2484C22.4862 33.2484 22.9525 33.0552 23.2964 32.7114C23.6402 32.3676 23.8333 31.9013 23.8333 31.415C23.8333 30.9288 23.6402 30.4625 23.2964 30.1187C22.9525 29.7749 22.4862 29.5817 22 29.5817H14.6667C14.1804 29.5817 13.7141 29.7749 13.3703 30.1187C13.0265 30.4625 12.8333 30.9288 12.8333 31.415C12.8333 31.9013 13.0265 32.3676 13.3703 32.7114C13.7141 33.0552 14.1804 33.2484 14.6667 33.2484H22Z" fill="white"/>
</svg>
