<svg width="20" height="20" viewBox="0 0 20 20" fill="none" xmlns="http://www.w3.org/2000/svg">
<path d="M15 3.73318C13.6739 2.40709 11.8754 1.66211 9.99999 1.66211C8.12463 1.66211 6.32607 2.40709 4.99999 3.73318C3.67391 5.05926 2.92892 6.85781 2.92892 8.73318C2.92892 10.6085 3.67391 12.4071 4.99999 13.7332L9.39166 18.1332C9.46913 18.2113 9.5613 18.2733 9.66285 18.3156C9.76439 18.3579 9.87331 18.3797 9.98333 18.3797C10.0933 18.3797 10.2023 18.3579 10.3038 18.3156C10.4054 18.2733 10.4975 18.2113 10.575 18.1332L15 13.6915C16.3205 12.3709 17.0624 10.5799 17.0624 8.71234C17.0624 6.8448 16.3205 5.05374 15 3.73318ZM13.8083 12.4998L9.99999 16.3248L6.19166 12.4998C5.43928 11.7468 4.92706 10.7875 4.71974 9.74342C4.51242 8.69929 4.61932 7.61713 5.02691 6.63374C5.43451 5.65036 6.12451 4.80989 7.00968 4.21857C7.89486 3.62726 8.93548 3.31166 9.99999 3.31166C11.0645 3.31166 12.1051 3.62726 12.9903 4.21857C13.8755 4.80989 14.5655 5.65036 14.9731 6.63374C15.3807 7.61713 15.4876 8.69929 15.2802 9.74342C15.0729 10.7875 14.5607 11.7468 13.8083 12.4998ZM7.49999 6.17484C6.82725 6.84965 6.44949 7.76365 6.44949 8.71651C6.44949 9.66937 6.82725 10.5834 7.49999 11.2582C7.99979 11.7588 8.63631 12.1007 9.3297 12.241C10.0231 12.3813 10.7425 12.3137 11.3976 12.0466C12.0527 11.7796 12.6143 11.3251 13.0121 10.7401C13.4098 10.155 13.6259 9.46557 13.6333 8.75818C13.6371 8.28585 13.5461 7.81756 13.3657 7.381C13.1854 6.94444 12.9193 6.54847 12.5833 6.21651C12.2531 5.87866 11.8592 5.60946 11.4245 5.4244C10.9898 5.23934 10.5228 5.14207 10.0503 5.1382C9.57788 5.13433 9.10932 5.22392 8.67163 5.40183C8.23395 5.57974 7.83576 5.84245 7.49999 6.17484ZM11.4083 10.0748C11.0925 10.3955 10.6752 10.5964 10.2276 10.6434C9.78003 10.6903 9.33005 10.5804 8.95458 10.3323C8.57912 10.0842 8.30149 9.71338 8.16916 9.28325C8.03684 8.85311 8.05803 8.39037 8.22912 7.97414C8.40021 7.5579 8.71058 7.21402 9.10715 7.00129C9.50372 6.78856 9.96187 6.72018 10.4033 6.80786C10.8447 6.89553 11.2419 7.13381 11.5271 7.48195C11.8122 7.8301 11.9676 8.26649 11.9667 8.71651C11.9545 9.2309 11.7387 9.71945 11.3667 10.0748H11.4083Z" fill="#111111"/>
</svg>
