<svg width="44" height="45" viewBox="0 0 44 45" fill="none" xmlns="http://www.w3.org/2000/svg">
<path d="M22 3.91504C18.374 3.91504 14.8295 4.99027 11.8146 7.00476C8.79967 9.01926 6.44984 11.8825 5.06224 15.2325C3.67463 18.5825 3.31157 22.2687 4.01897 25.825C4.72636 29.3813 6.47244 32.648 9.0364 35.212C11.6004 37.776 14.8671 39.522 18.4234 40.2294C21.9797 40.9368 25.6659 40.5738 29.0159 39.1862C32.3659 37.7986 35.2291 35.4487 37.2436 32.4338C39.2581 29.4189 40.3334 25.8744 40.3334 22.2484C40.3334 19.8408 39.8592 17.4568 38.9378 15.2325C38.0165 13.0082 36.6661 10.9872 34.9637 9.28475C33.2612 7.58234 31.2402 6.23192 29.0159 5.31058C26.7916 4.38924 24.4076 3.91504 22 3.91504ZM22 36.915C19.0992 36.915 16.2636 36.0549 13.8517 34.4433C11.4397 32.8317 9.55988 30.541 8.4498 27.8611C7.33971 25.1811 7.04926 22.2321 7.61518 19.387C8.1811 16.542 9.57796 13.9286 11.6291 11.8775C13.6803 9.8263 16.2937 8.42944 19.1387 7.86352C21.9838 7.29761 24.9327 7.58805 27.6127 8.69814C30.2927 9.80822 32.5833 11.6881 34.1949 14.1C35.8065 16.5119 36.6667 19.3476 36.6667 22.2484C36.6667 26.1382 35.1215 29.8687 32.3709 32.6193C29.6204 35.3698 25.8899 36.915 22 36.915ZM29.3334 20.415H23.8334V14.915C23.8334 14.4288 23.6402 13.9625 23.2964 13.6187C22.9526 13.2749 22.4863 13.0817 22 13.0817C21.5138 13.0817 21.0475 13.2749 20.7037 13.6187C20.3598 13.9625 20.1667 14.4288 20.1667 14.915V20.415H14.6667C14.1805 20.415 13.7141 20.6082 13.3703 20.952C13.0265 21.2958 12.8334 21.7621 12.8334 22.2484C12.8334 22.7346 13.0265 23.2009 13.3703 23.5447C13.7141 23.8885 14.1805 24.0817 14.6667 24.0817H20.1667V29.5817C20.1667 30.0679 20.3598 30.5343 20.7037 30.8781C21.0475 31.2219 21.5138 31.415 22 31.415C22.4863 31.415 22.9526 31.2219 23.2964 30.8781C23.6402 30.5343 23.8334 30.0679 23.8334 29.5817V24.0817H29.3334C29.8196 24.0817 30.2859 23.8885 30.6297 23.5447C30.9735 23.2009 31.1667 22.7346 31.1667 22.2484C31.1667 21.7621 30.9735 21.2958 30.6297 20.952C30.2859 20.6082 29.8196 20.415 29.3334 20.415Z" fill="white"/>
</svg>
