<svg width="80" height="20" viewBox="0 0 80 20" fill="none" xmlns="http://www.w3.org/2000/svg">
<g clip-path="url(#clip0_702_23600)">
<path d="M20.7709 16.1148V3.88517C20.7709 1.74281 18.9609 0 16.736 0H4.0349C1.80999 0 0 1.74281 0 3.88517V16.1148C0 18.2572 1.80999 20 4.0349 20H16.736C18.9609 20 20.7709 18.2572 20.7709 16.1148Z" fill="url(#paint0_linear_702_23600)"/>
<path fill-rule="evenodd" clip-rule="evenodd" d="M13.8086 0.99055L3.84424 5.70657L18.4968 5.44998L16.7058 1.94154C16.1785 0.908563 14.8814 0.482862 13.8086 0.99055Z" fill="#8BC53F"/>
<path fill-rule="evenodd" clip-rule="evenodd" d="M16.0979 2.72262L3.10303 5.87028L19.2409 6.2763L18.725 4.23538C18.4334 3.11909 17.2572 2.44188 16.0979 2.72262Z" fill="#008F4D"/>
<path fill-rule="evenodd" clip-rule="evenodd" d="M18.8996 13.0691C18.8996 12.2705 18.2271 11.623 17.3976 11.623C16.5682 11.623 15.8958 12.2705 15.8958 13.0691C15.8958 13.8678 16.5682 14.5153 17.3976 14.5153C18.2271 14.5153 18.8996 13.8678 18.8996 13.0691Z" fill="white"/>
<path fill-rule="evenodd" clip-rule="evenodd" d="M16.9638 5.61523H3.13216C2.93897 5.61523 2.78247 5.76583 2.78247 5.95181C2.78247 6.13773 2.93897 6.2883 3.13216 6.2883H16.9638C19.0487 6.2883 20.7449 7.9438 20.7449 9.97851L20.7709 10.276V7.68144C19.9797 6.44213 18.5692 5.61523 16.9638 5.61523Z" fill="white"/>
<path fill-rule="evenodd" clip-rule="evenodd" d="M2.45383 16.2942C2.06904 16.4241 1.86636 16.8298 2.00122 17.2003C2.13618 17.571 2.55755 17.7661 2.94245 17.6361C3.32734 17.5062 3.52988 17.1005 3.39492 16.73C3.26009 16.3593 2.83872 16.1642 2.45383 16.2942Z" fill="#BA3827"/>
<path fill-rule="evenodd" clip-rule="evenodd" d="M3.86008 15.2717C3.47529 15.4016 3.27261 15.8074 3.40747 16.1779C3.54243 16.5485 3.9638 16.7436 4.34869 16.6137C4.73359 16.4837 4.93613 16.078 4.80117 15.7075C4.66634 15.3369 4.24497 15.1417 3.86008 15.2717Z" fill="#BA3827"/>
<path fill-rule="evenodd" clip-rule="evenodd" d="M2.06816 14.5623C1.67193 14.6947 1.46107 15.1021 1.59735 15.4725C1.73365 15.8427 2.16539 16.0356 2.56163 15.9032C2.95793 15.7708 3.16865 15.3634 3.03238 14.9931C2.8962 14.6228 2.46446 14.4299 2.06816 14.5623Z" fill="#BA3827"/>
<path fill-rule="evenodd" clip-rule="evenodd" d="M4.18661 17.0256C3.80172 17.1556 3.59918 17.5613 3.734 17.9318C3.86896 18.3024 4.29034 18.4975 4.67509 18.3676C5.06002 18.2376 5.26266 17.832 5.1277 17.4614C4.99274 17.0908 4.5714 16.8956 4.18661 17.0256Z" fill="#BA3827"/>
<path fill-rule="evenodd" clip-rule="evenodd" d="M33.5652 10.1993L32.1337 6.23629L30.7021 10.1993H33.5652ZM29.1812 14.3344H26.9443L31.1495 3.47949H33.1179L37.3231 14.3344H35.0862L34.281 12.0946H29.9864L29.1812 14.3344Z" fill="#00527D"/>
<path fill-rule="evenodd" clip-rule="evenodd" d="M40.0965 10.3723C40.0965 11.0271 40.2934 11.5498 40.687 11.9402C41.0807 12.3308 41.5698 12.526 42.1544 12.526C42.7387 12.526 43.2281 12.3308 43.6216 11.9402C44.0154 11.5498 44.2123 11.0271 44.2123 10.3723C44.2123 9.71748 44.0154 9.19502 43.6216 8.80432C43.2281 8.41388 42.7387 8.21857 42.1544 8.21857C41.5698 8.21857 41.0807 8.41388 40.687 8.80432C40.2934 9.19502 40.0965 9.71748 40.0965 10.3723ZM42.4227 6.32324C42.9355 6.32324 43.4248 6.42383 43.8901 6.62472C44.3554 6.82584 44.7639 7.10724 45.1158 7.46903C45.4676 7.83082 45.748 8.25885 45.957 8.7526C46.1655 9.24668 46.27 9.78641 46.27 10.3723C46.27 10.958 46.1655 11.4981 45.957 11.9918C45.748 12.4859 45.4676 12.9137 45.1158 13.2755C44.7639 13.6374 44.3554 13.9189 43.8901 14.1198C43.4248 14.3209 42.9355 14.4214 42.4227 14.4214C42.0766 14.4214 41.7754 14.3808 41.5191 14.3007C41.2625 14.2205 41.0387 14.1343 40.8481 14.0423C40.6333 13.9276 40.4424 13.7954 40.2755 13.6459V17.0921H38.2177V6.40938H39.7387L40.0965 7.18466C40.2754 7.02395 40.4841 6.88048 40.7228 6.75393C40.9256 6.65059 41.1702 6.55304 41.4565 6.46107C41.7427 6.36919 42.0649 6.32324 42.4227 6.32324Z" fill="#00527D"/>
<path fill-rule="evenodd" clip-rule="evenodd" d="M51.4592 8.21853C50.9224 8.21853 50.4838 8.36796 50.1438 8.66646C49.804 8.96532 49.5861 9.33285 49.4908 9.7693H53.4274C53.3319 9.33285 53.1143 8.96532 52.7743 8.66646C52.4342 8.36796 51.9959 8.21853 51.4592 8.21853ZM55.1274 11.923C55.02 12.2218 54.856 12.5204 54.6353 12.819C54.4145 13.1178 54.146 13.3848 53.8302 13.6202C53.5138 13.8557 53.156 14.0482 52.7564 14.1973C52.3566 14.3465 51.9244 14.4214 51.4592 14.4214C50.8983 14.4214 50.3705 14.3154 49.8755 14.1026C49.3804 13.8902 48.9449 13.6002 48.5692 13.2324C48.1934 12.865 47.8951 12.4372 47.6745 11.9488C47.4535 11.4607 47.3434 10.9351 47.3434 10.3723C47.3434 9.80958 47.4535 9.28414 47.6745 8.7957C47.8951 8.30765 48.1934 7.87981 48.5692 7.51206C48.9449 7.14466 49.3804 6.85465 49.8755 6.64196C50.3705 6.42957 50.8983 6.32324 51.4592 6.32324C51.9959 6.32324 52.5028 6.42094 52.9801 6.6161C53.4572 6.81168 53.8748 7.08733 54.2328 7.44316C54.5907 7.79941 54.8739 8.22715 55.0827 8.72687C55.2913 9.22648 55.3959 9.77523 55.3959 10.3723C55.3959 10.4643 55.3897 10.5533 55.3779 10.6394C55.366 10.7255 55.3539 10.8089 55.3422 10.8892C55.3302 10.9813 55.3181 11.0674 55.3064 11.1476H49.5802C49.6756 11.5382 49.8784 11.8657 50.1887 12.1297C50.4987 12.3941 50.9224 12.5261 51.4592 12.5261C51.7333 12.5261 51.963 12.4975 52.148 12.44C52.3329 12.3825 52.4908 12.3136 52.6221 12.2331C52.7654 12.1413 52.8845 12.0379 52.9801 11.923H55.1274Z" fill="#00527D"/>
<path fill-rule="evenodd" clip-rule="evenodd" d="M58.9746 14.3345H56.9166V3.47949H58.9746V14.3345Z" fill="#00527D"/>
<path fill-rule="evenodd" clip-rule="evenodd" d="M62.4637 11.8368C62.5112 12.1012 62.6425 12.3252 62.8574 12.5088C63.0721 12.6927 63.3584 12.7845 63.7163 12.7845C64.0743 12.7845 64.3574 12.6957 64.5663 12.5174C64.7749 12.3395 64.8794 12.1413 64.8794 11.9231C64.8794 11.7394 64.7749 11.5956 64.5663 11.4923C64.3574 11.3889 64.098 11.2941 63.7878 11.2079C63.4776 11.1217 63.1407 11.033 62.7768 10.9409C62.4128 10.8491 62.0759 10.7141 61.7658 10.536C61.4555 10.358 61.1959 10.1284 60.9874 9.84679C60.7785 9.5655 60.6743 9.19498 60.6743 8.73535C60.6743 8.41397 60.7428 8.10653 60.8801 7.81354C61.017 7.52068 61.2169 7.26525 61.4796 7.04679C61.7417 6.82879 62.0521 6.65353 62.41 6.52147C62.768 6.38948 63.1733 6.32324 63.6268 6.32324C64.6169 6.32324 65.3774 6.55314 65.9083 7.01247C66.439 7.47197 66.7522 8.04625 66.8479 8.73535H64.8794C64.8316 8.56321 64.7032 8.3908 64.4947 8.21853C64.2859 8.04625 64.0263 7.96012 63.7163 7.96012C63.4059 7.96012 63.1645 8.03498 62.9914 8.18405C62.8185 8.33351 62.7322 8.51735 62.7322 8.73535C62.7322 8.91933 62.8365 9.06279 63.0453 9.16617C63.2539 9.26955 63.5134 9.36428 63.8236 9.45054C64.1338 9.53668 64.4708 9.62865 64.8347 9.72616C65.1986 9.8239 65.5354 9.96472 65.8457 10.1483C66.1559 10.3322 66.4151 10.5705 66.6242 10.8634C66.8327 11.1562 66.9373 11.5382 66.9373 12.0091C66.9373 12.3308 66.8656 12.638 66.7225 12.9311C66.5794 13.2239 66.3765 13.4796 66.1141 13.6977C65.8516 13.916 65.5326 14.0913 65.1568 14.2233C64.7809 14.3551 64.3605 14.4214 63.8952 14.4214C62.8216 14.4214 62.0074 14.186 61.4527 13.7149C60.8979 13.244 60.5788 12.6182 60.4954 11.8368H62.4637Z" fill="#00527D"/>
<path fill-rule="evenodd" clip-rule="evenodd" d="M70.5161 14.3353H68.4583V6.4095H70.5161V14.3353ZM69.5319 5.37562C69.2215 5.37562 68.9505 5.26362 68.7178 5.03965C68.4851 4.81569 68.3688 4.55449 68.3688 4.25567C68.3688 3.95717 68.4851 3.69577 68.7178 3.47181C68.9505 3.24775 69.2215 3.13574 69.5319 3.13574C69.842 3.13574 70.1135 3.24775 70.3461 3.47181C70.5787 3.69577 70.695 3.95717 70.695 4.25567C70.695 4.55449 70.5787 4.81569 70.3461 5.03965C70.1135 5.26362 69.842 5.37562 69.5319 5.37562Z" fill="#00527D"/>
<path fill-rule="evenodd" clip-rule="evenodd" d="M76.6893 6.32324C77.1784 6.32324 77.6258 6.40079 78.0314 6.55582C78.4368 6.71089 78.7857 6.93486 79.0783 7.22782C79.3703 7.52071 79.5971 7.87391 79.7582 8.28746C79.9193 8.70094 80 9.16621 80 9.68316V14.3351H77.942V9.94157C77.942 9.42462 77.7836 9.00848 77.4678 8.69232C77.1516 8.37658 76.7431 8.21856 76.2419 8.21856C75.741 8.21856 75.3322 8.37658 75.0163 8.69232C74.7 9.00848 74.5422 9.42462 74.5422 9.94157V14.3351H72.4843V6.40941H74.0053L74.3632 7.18477C74.5658 7.02397 74.7865 6.88051 75.0253 6.75396C75.228 6.65062 75.4695 6.55317 75.7499 6.46107C76.03 6.36932 76.3432 6.32324 76.6893 6.32324Z" fill="#00527D"/>
</g>
<defs>
<linearGradient id="paint0_linear_702_23600" x1="20.8668" y1="-1.1976e-06" x2="0.78884" y2="20.8519" gradientUnits="userSpaceOnUse">
<stop stop-color="#FCB950"/>
<stop offset="1" stop-color="#EF4324"/>
</linearGradient>
<clipPath id="clip0_702_23600">
<rect width="80" height="20" fill="white"/>
</clipPath>
</defs>
</svg>
