<svg width="52" height="32" viewBox="0 0 52 32" fill="none" xmlns="http://www.w3.org/2000/svg">
<g clip-path="url(#clip0_702_23638)">
<path d="M50.05 32H1.95C0.87308 32 0 31.1196 0 30.0336V1.96642C0 0.880432 0.87308 0 1.95 0H50.05C51.1269 0 52 0.880432 52 1.96642V30.0336C52 31.1196 51.1269 32 50.05 32Z" fill="white"/>
<path d="M19.2124 1.02198C24.7606 1.02198 30.309 1.04171 35.857 1.00914C37.3804 1.00016 38.9045 0.991764 40.4281 0.972231C40.5581 0.970592 40.6869 0.989405 40.816 1.00081C41.4354 1.05548 41.5964 1.55475 41.721 2.08103C43.0315 7.61501 42.6152 13.509 40.2872 18.7146C39.6668 20.102 38.9085 21.4091 38.0704 22.6694C37.4118 23.6596 36.6942 24.6056 35.9092 25.5009C35.3237 26.1688 34.7079 26.8068 34.0551 27.4027C32.826 28.5242 31.5213 29.5474 30.0006 30.2502C29.1942 30.6229 28.3482 30.8565 27.4683 30.9812C26.5907 31.1057 25.7097 31.1044 24.8291 31.0851C19.9647 30.9787 15.0998 31.0615 10.2351 31.0395C7.71685 31.028 5.19856 31.0366 2.68026 31.0398C2.41721 31.0401 2.15747 31.0185 1.90936 30.9371C1.39326 30.7677 1.08048 30.3119 1.05104 29.7067C1.04272 29.535 1.04512 29.3627 1.04512 29.1907C1.04486 20.3885 1.0448 11.5863 1.04571 2.78409C1.04571 2.53213 1.05058 2.28259 1.09966 2.03056C1.21731 1.42674 1.69324 1.06708 2.29689 1.03018C2.50691 1.01733 2.71816 1.02316 2.92882 1.02316C8.35665 1.02283 13.7845 1.0229 19.2124 1.02198Z" fill="#2E4653"/>
<path d="M42.7888 1.37382C42.8056 1.46263 42.841 1.54785 42.8666 1.63503C43.2924 3.0831 43.569 4.57489 43.7007 6.07934C44.1114 10.7753 43.0591 15.5233 40.9646 19.7183C38.5542 24.5458 34.856 28.4993 29.9689 30.7651C29.8748 30.8088 29.7103 30.7901 29.7403 30.9436C29.7684 31.0879 29.9226 31.0342 30.0236 31.0342C33.2448 31.0353 36.466 31.0388 39.687 31.0258C43.1822 31.0118 47.408 29.2297 49.4083 26.2437C50.4246 24.7264 50.6101 23.0044 49.8895 21.3253C49.87 21.2799 49.8461 21.2337 49.7891 21.2326C49.7408 21.2429 49.722 21.2801 49.7034 21.3154C49.3945 21.9053 49.0779 22.4899 48.7248 23.0551C47.2901 25.3524 45.2228 27.2935 42.628 28.1532C41.6573 28.4748 40.8011 28.5837 40.1814 28.6184C40.3218 28.5705 40.4632 28.5218 40.6049 28.4739C41.3562 28.22 42.0863 27.9232 42.7888 27.5447C42.8958 27.4871 43.0017 27.4274 43.1066 27.3658C47.6556 24.6945 50.4894 19.171 50.9363 13.9963C51.1251 11.8102 50.8299 8.85252 49.0873 7.29524C48.9419 7.16539 48.7807 7.0771 48.6019 7.0244C48.5419 7.09899 48.5596 7.17247 48.5575 7.24149C48.5436 7.70544 48.5407 8.16892 48.5142 8.63352C48.254 13.1977 46.9282 17.6226 44.6764 21.5658C44.0519 22.6592 43.3196 23.6623 42.3351 24.4557C42.1038 24.642 41.8584 24.8163 41.5561 24.899C41.6135 24.8169 41.6682 24.7329 41.7286 24.6531C41.9533 24.3565 42.1944 24.0711 42.4029 23.7633C44.3601 20.8756 45.7175 17.5579 46.5214 14.1625C47.139 11.5539 47.6588 8.60029 47.1503 5.93363C46.8788 4.50994 46.4268 2.81612 45.2498 1.88194C44.6278 1.38817 43.9297 1.09262 43.1386 1.01462C43.0967 1.01049 43.0587 1.00826 43.0245 1.00826C42.8002 1.00826 42.738 1.1033 42.7888 1.37382Z" fill="url(#paint0_linear_702_23638)"/>
<path d="M12.0892 12.7505C12.0665 12.7786 12.0179 12.8267 12.0323 12.868C12.0466 12.9091 12.1348 12.8996 12.172 12.9182C12.2356 12.9504 12.2612 13.0148 12.2592 13.0832C12.2569 13.1629 12.2561 13.9267 12.2531 14.9793C11.3344 14.9739 10.4158 14.9684 9.49714 14.9629C9.47926 14.7328 9.47328 14.4747 9.4896 14.1939C9.50461 13.9351 9.53744 13.6773 9.58762 13.4231C9.60959 13.3118 9.63487 13.2011 9.66341 13.0913C9.69474 12.9706 9.78099 12.8225 9.77183 12.6962C9.77066 12.6793 9.76669 12.6619 9.7561 12.6487C9.7314 12.6179 9.68408 12.6229 9.64599 12.6328C9.41205 12.6933 9.18462 12.8192 9.00541 12.9821C8.95036 13.0322 8.80287 13.1733 8.66923 13.4147C8.31557 14.0534 8.28788 14.9579 8.28788 14.9579C8.27 15.5428 8.24712 16.7279 8.86495 17.9583C8.86495 17.9583 9.29798 18.8208 9.91717 19.0334C10.0395 19.0754 10.0727 19.0476 10.0832 19.0339C10.1315 18.9715 10.028 18.8642 9.99738 18.8166C9.94096 18.7286 9.89273 18.6353 9.85119 18.5394C9.76526 18.3408 9.70839 18.1306 9.66594 17.9187C9.53659 17.2737 9.45294 16.6209 9.47081 15.9623H12.2531V18.438C12.2531 18.6022 12.3194 18.7598 12.4696 18.8369C12.56 18.8834 12.6623 18.8998 12.7631 18.9124C12.9394 18.9344 13.1193 18.9468 13.2937 18.9129C13.3958 18.8932 13.4977 18.856 13.5739 18.7847C13.6965 18.6698 13.6984 18.5143 13.6984 18.3577C13.6984 17.1142 13.71 15.8706 13.7084 14.6271C13.708 14.3187 13.706 14.0103 13.7022 13.7019C13.6972 13.2831 13.5682 12.8613 13.2015 12.6264C13.0431 12.525 12.8616 12.4694 12.6842 12.4694C12.4616 12.4694 12.2455 12.5567 12.0892 12.7505Z" fill="url(#paint1_linear_702_23638)"/>
<path d="M7.74813 14.2574C7.38251 14.6981 7.35365 15.2125 7.3359 15.724C7.29437 16.9245 7.72896 17.7786 7.82633 17.9623C8.04499 18.3746 8.28237 18.6461 8.3525 18.7243C8.60236 19.0029 8.8532 19.1965 9.0456 19.3247C8.89304 19.287 8.67692 19.2152 8.44597 19.0718C8.23219 18.939 8.07963 18.7906 7.97934 18.677C7.83452 18.4903 7.73266 18.326 7.66578 18.209C7.48729 17.897 7.26486 17.5082 7.1515 16.987C7.11958 16.8407 7.09813 16.6919 7.04106 16.686C6.95864 16.6776 6.8655 16.9738 6.84541 17.0378C6.78035 17.2444 6.7639 17.4349 6.76507 17.5361C6.76982 17.9291 7.06193 18.6943 7.76113 19.2133C7.76113 19.2133 8.37226 19.6671 9.41746 19.702C9.4601 19.7034 9.71334 19.6974 9.90106 19.5619C9.99343 19.4953 10.0545 19.3931 9.89053 19.3447C8.76766 19.0134 8.32969 17.8142 8.0899 16.7739C8.03764 16.5473 7.98785 16.3239 7.95815 16.0922C7.86851 15.3929 7.87228 14.6238 8.09725 13.9491C7.92591 13.9879 7.8483 14.1366 7.74813 14.2574Z" fill="url(#paint2_linear_702_23638)"/>
<path d="M8.09729 13.9492C8.09883 13.9489 8.10009 13.9482 8.10163 13.9479L8.09869 13.945C8.0982 13.9464 8.09778 13.9478 8.09729 13.9492Z" fill="url(#paint3_linear_702_23638)"/>
<path d="M8.09851 13.9445L8.10124 13.9473L8.11431 13.9291C8.11431 13.9291 8.09845 13.9444 8.09851 13.9445Z" fill="url(#paint4_linear_702_23638)"/>
<path d="M27.587 12.4839C27.5365 12.4846 27.4859 12.4876 27.4353 12.4876C27.3652 12.4882 27.2952 12.4895 27.225 12.49C27.1773 12.4905 27.1294 12.4904 27.0815 12.4903C26.9929 12.4902 26.9042 12.49 26.8159 12.4931C26.6935 12.4979 26.5791 12.5399 26.4924 12.6321C26.3889 12.7414 26.3068 12.8974 26.17 13.232C26.147 13.2872 26.1292 13.334 26.1165 13.3662C26.0648 13.4797 25.3304 15.0839 25.0535 15.5484C25.0334 15.583 24.988 15.657 24.9317 15.6546C24.8754 15.657 24.8299 15.583 24.8098 15.5484C24.5329 15.0839 23.7984 13.4797 23.7468 13.3662C23.7341 13.334 23.7163 13.2872 23.6933 13.232C23.5566 12.8974 23.4744 12.7414 23.3709 12.6321C23.2842 12.5399 23.1698 12.4979 23.0474 12.4931C22.959 12.49 22.8704 12.4902 22.7818 12.4903C22.7339 12.4904 22.6861 12.4905 22.6383 12.49C22.5682 12.4895 22.4981 12.4882 22.428 12.4876C22.3774 12.4876 22.3268 12.4846 22.2763 12.4839C22.2033 12.4834 22.1349 12.507 22.0728 12.5465C21.9579 12.6212 21.9085 12.7305 21.8907 12.7718C21.8573 12.8477 21.851 12.9132 21.8458 12.9405C21.7953 13.198 21.7901 13.4117 21.7947 13.5556C21.7413 15.2065 21.6878 16.8569 21.6344 18.5077C21.6362 18.535 21.6413 18.5733 21.6562 18.6158C21.7402 18.8574 22.0441 18.9765 22.2785 18.9794C22.5153 18.9825 22.798 18.8696 22.898 18.6503C22.8992 18.6479 22.9176 18.6054 22.9273 18.5582C22.9969 18.2218 23.0371 15.5143 23.052 14.3346C23.6928 15.6589 24.1944 16.6486 24.426 17.0851C24.4731 17.175 24.5736 17.3553 24.7587 17.4166C24.8121 17.4349 24.8713 17.4445 24.9317 17.4452C24.992 17.4445 25.0512 17.4349 25.1046 17.4166C25.2897 17.3553 25.3902 17.175 25.4374 17.0851C25.6689 16.6486 26.1706 15.6589 26.8113 14.3346C26.8262 15.5143 26.8664 18.2218 26.936 18.5582C26.9458 18.6054 26.9641 18.6479 26.9653 18.6503C27.0653 18.8696 27.348 18.9825 27.5848 18.9794C27.8192 18.9765 28.1232 18.8574 28.2071 18.6158C28.2221 18.5733 28.2272 18.535 28.2289 18.5077C28.1754 16.8569 28.122 15.2065 28.0686 13.5556C28.0732 13.4117 28.0681 13.198 28.0175 12.9405C28.0123 12.9132 28.006 12.8477 27.9727 12.7718C27.9548 12.7305 27.9055 12.6212 27.7905 12.5465C27.7291 12.5075 27.6617 12.4839 27.5897 12.4839C27.5888 12.4839 27.5879 12.4839 27.587 12.4839Z" fill="url(#paint5_linear_702_23638)"/>
<path d="M16.6524 17.4643C16.6669 17.4661 16.6808 17.4692 16.694 17.4729C16.694 17.474 16.6934 17.4746 16.6928 17.4759C16.682 17.4941 16.6441 17.4837 16.6524 17.4643Z" fill="white"/>
<path d="M19.1412 12.6711C19.0494 12.7739 19.0245 12.8954 19.0167 12.9687C19.0128 14.187 19.0089 15.4052 19.0051 16.6234C19.0074 16.7428 18.9955 16.9674 18.8761 17.2147C18.75 17.4758 18.5713 17.6234 18.5254 17.66C18.5254 17.66 18.2212 17.9023 17.8234 17.9348C17.7836 17.9381 17.7418 17.9395 17.7418 17.9395C17.7313 17.9399 17.7209 17.9402 17.7104 17.9402C17.6999 17.9402 17.6895 17.9399 17.6791 17.9395C17.679 17.9395 17.6372 17.9381 17.5974 17.9348C17.1996 17.9023 16.8953 17.66 16.8953 17.66C16.8495 17.6234 16.6708 17.4758 16.5448 17.2147C16.4254 16.9674 16.4134 16.7428 16.4157 16.6234C16.4118 15.4052 16.408 14.187 16.4042 12.9687C16.3964 12.8954 16.3714 12.7739 16.2796 12.6711C16.1144 12.486 15.8507 12.4934 15.6432 12.4991C15.4246 12.5052 15.1969 12.5114 15.0637 12.6812C14.9591 12.8145 14.9674 12.979 14.9757 13.0506V16.8757C14.9757 17.2316 15.0772 17.7032 15.4155 18.1508C15.7956 18.6536 16.3356 18.8777 16.5021 18.9401C16.8394 19.0665 17.1714 19.1018 17.2731 19.1121C17.4494 19.1299 17.5994 19.1308 17.7104 19.1273C17.8214 19.1308 17.9715 19.1299 18.1478 19.1121C18.2494 19.1018 18.5814 19.0665 18.9187 18.9401C19.0852 18.8777 19.6251 18.6536 20.0053 18.1508C20.3436 17.7032 20.4451 17.2316 20.4451 16.8757V13.0506C20.4535 12.979 20.4617 12.8145 20.3571 12.6812C20.224 12.5114 19.9963 12.5052 19.7776 12.4991C19.7403 12.498 19.701 12.497 19.6609 12.497C19.4783 12.497 19.2766 12.5194 19.1412 12.6711Z" fill="url(#paint6_linear_702_23638)"/>
<path d="M16.9624 19.043C16.9739 19.0447 16.985 19.048 16.9954 19.0527C16.9952 19.0525 16.9762 19.0645 16.9762 19.0645L16.9624 19.043Z" fill="white"/>
<path d="M30.3231 12.9807C29.8143 13.3663 29.4398 13.9073 29.2567 14.5217C28.7335 16.285 29.5204 18.5345 31.4045 19.0318C31.7085 19.112 32.021 19.1459 32.3329 19.1374C32.6447 19.1459 32.9572 19.112 33.2613 19.0318C35.1452 18.5345 35.9322 16.285 35.409 14.5217C35.2259 13.9073 34.8514 13.3663 34.3427 12.9807C33.7658 12.5442 33.0512 12.3152 32.3329 12.2982C31.6145 12.3152 30.8999 12.5442 30.3231 12.9807ZM30.6554 16.4901C30.4657 15.6857 30.5006 14.7385 30.9474 14.0208C31.2569 13.5235 31.7831 13.229 32.3329 13.2248C32.8826 13.229 33.4087 13.5235 33.7183 14.0208C34.1651 14.7385 34.1999 15.6857 34.0102 16.4901C33.8134 17.325 33.2637 18.2224 32.3329 18.2321C31.4021 18.2224 30.8523 17.325 30.6554 16.4901Z" fill="url(#paint7_linear_702_23638)"/>
</g>
<defs>
<linearGradient id="paint0_linear_702_23638" x1="27.3786" y1="20.6024" x2="51.6077" y2="13.2266" gradientUnits="userSpaceOnUse">
<stop stop-color="#9C8937"/>
<stop offset="0.329003" stop-color="#9C8937"/>
<stop offset="0.330336" stop-color="#9C8937"/>
<stop offset="0.560566" stop-color="#F7E59E"/>
<stop offset="0.627021" stop-color="#F7E59E"/>
<stop offset="0.787549" stop-color="#B39F4D"/>
<stop offset="1" stop-color="#B39F4D"/>
</linearGradient>
<linearGradient id="paint1_linear_702_23638" x1="12.3705" y1="16.4826" x2="7.88784" y2="13.1186" gradientUnits="userSpaceOnUse">
<stop stop-color="#9C8937"/>
<stop offset="0.329003" stop-color="#9C8937"/>
<stop offset="0.330336" stop-color="#9C8937"/>
<stop offset="0.560566" stop-color="#F7E59E"/>
<stop offset="0.627021" stop-color="#F7E59E"/>
<stop offset="0.787549" stop-color="#B39F4D"/>
<stop offset="1" stop-color="#B39F4D"/>
</linearGradient>
<linearGradient id="paint2_linear_702_23638" x1="10.7062" y1="18.7006" x2="6.22356" y2="15.3367" gradientUnits="userSpaceOnUse">
<stop stop-color="#9C8937"/>
<stop offset="0.329003" stop-color="#9C8937"/>
<stop offset="0.330336" stop-color="#9C8937"/>
<stop offset="0.560566" stop-color="#F7E59E"/>
<stop offset="0.627021" stop-color="#F7E59E"/>
<stop offset="0.787549" stop-color="#B39F4D"/>
<stop offset="1" stop-color="#B39F4D"/>
</linearGradient>
<linearGradient id="paint3_linear_702_23638" x1="12.3261" y1="17.1298" x2="7.54719" y2="13.4942" gradientUnits="userSpaceOnUse">
<stop stop-color="#9C8937"/>
<stop offset="0.329003" stop-color="#9C8937"/>
<stop offset="0.330336" stop-color="#9C8937"/>
<stop offset="0.560566" stop-color="#F7E59E"/>
<stop offset="0.627021" stop-color="#F7E59E"/>
<stop offset="0.787549" stop-color="#B39F4D"/>
<stop offset="1" stop-color="#B39F4D"/>
</linearGradient>
<linearGradient id="paint4_linear_702_23638" x1="12.0324" y1="16.9336" x2="7.54907" y2="13.5696" gradientUnits="userSpaceOnUse">
<stop stop-color="#9C8937"/>
<stop offset="0.329003" stop-color="#9C8937"/>
<stop offset="0.330336" stop-color="#9C8937"/>
<stop offset="0.560566" stop-color="#F7E59E"/>
<stop offset="0.627021" stop-color="#F7E59E"/>
<stop offset="0.787549" stop-color="#B39F4D"/>
<stop offset="1" stop-color="#B39F4D"/>
</linearGradient>
<linearGradient id="paint5_linear_702_23638" x1="28.8766" y1="17.8695" x2="21.9271" y2="14.2141" gradientUnits="userSpaceOnUse">
<stop stop-color="#9C8937"/>
<stop offset="0.329003" stop-color="#9C8937"/>
<stop offset="0.330336" stop-color="#9C8937"/>
<stop offset="0.560566" stop-color="#F7E59E"/>
<stop offset="0.627021" stop-color="#F7E59E"/>
<stop offset="0.787549" stop-color="#B39F4D"/>
<stop offset="1" stop-color="#B39F4D"/>
</linearGradient>
<linearGradient id="paint6_linear_702_23638" x1="21.1189" y1="17.5267" x2="14.1622" y2="13.2076" gradientUnits="userSpaceOnUse">
<stop stop-color="#9C8937"/>
<stop offset="0.329003" stop-color="#9C8937"/>
<stop offset="0.330336" stop-color="#9C8937"/>
<stop offset="0.560566" stop-color="#F7E59E"/>
<stop offset="0.627021" stop-color="#F7E59E"/>
<stop offset="0.787549" stop-color="#B39F4D"/>
<stop offset="1" stop-color="#B39F4D"/>
</linearGradient>
<linearGradient id="paint7_linear_702_23638" x1="37.217" y1="18.5953" x2="28.5708" y2="13.6188" gradientUnits="userSpaceOnUse">
<stop stop-color="#9C8937"/>
<stop offset="0.329003" stop-color="#9C8937"/>
<stop offset="0.330336" stop-color="#9C8937"/>
<stop offset="0.560566" stop-color="#F7E59E"/>
<stop offset="0.627021" stop-color="#F7E59E"/>
<stop offset="0.787549" stop-color="#B39F4D"/>
<stop offset="1" stop-color="#B39F4D"/>
</linearGradient>
<clipPath id="clip0_702_23638">
<rect width="52" height="32" fill="white"/>
</clipPath>
</defs>
</svg>
