<svg width="76" height="22" viewBox="0 0 76 22" fill="none" xmlns="http://www.w3.org/2000/svg">
<g clip-path="url(#clip0_702_23631)">
<path fill-rule="evenodd" clip-rule="evenodd" d="M12.4536 2.17795C12.1863 1.74796 11.8405 1.37577 11.4326 1.07816C11.0179 0.797193 10.5664 0.576689 10.0883 0.427896C9.57065 0.259132 9.0357 0.146901 8.49133 0.092659C7.85575 0.0326091 7.22015 0.00102901 6.58141 0.00394427H1.05668C0.515248 -0.0444905 0.0410672 0.358893 0.00619546 0.897781C0.00619546 0.897781 0.00619546 0.929369 0.00619546 0.946195V9.87586C0.771667 11.5106 2.04308 12.8598 3.6377 13.7249V11.9316C3.58571 11.3504 4.0173 10.8377 4.60426 10.7892H6.26173C8.52016 10.7892 10.247 10.3165 11.4378 9.3746C12.6267 8.43234 13.2308 7.03786 13.2477 5.1843C13.2506 4.65228 13.1873 4.11942 13.0606 3.6009C12.9347 3.09715 12.7298 2.61832 12.4536 2.17795ZM9.21693 6.7681C9.024 7.09812 8.73585 7.36414 8.39403 7.53267C8.02008 7.71078 7.61686 7.81656 7.20511 7.84484C6.75367 7.90218 6.29619 7.93087 5.84184 7.92796H4.25054C3.8676 7.92796 3.63207 7.62204 3.63207 7.169V3.4864C3.60617 3.14286 3.9054 2.86189 4.25054 2.9022H5.84184C6.35654 2.9022 6.84284 2.91675 7.29718 2.94834C7.70603 2.96518 8.10611 3.06286 8.47443 3.23451C8.81708 3.3831 9.10147 3.63811 9.28833 3.95856C9.49902 4.38834 9.59632 4.86716 9.57065 5.34515C9.57921 5.8404 9.45831 6.33023 9.21693 6.76291V6.7681ZM3.64001 14.2632C2.27964 13.7733 1.03916 12.9976 0.00619546 11.9865V16.3019C-0.0430909 16.6488 0.20726 16.9669 0.558676 17.0012H3.05597C3.7181 17.0012 3.64001 16.2967 3.64001 16.2967V14.2632ZM37.9587 4.70652H35.8064C35.3806 4.67782 34.9985 4.9615 34.9004 5.37051L32.3968 12.2359C32.3968 12.2359 30.1868 5.9838 30.0202 5.49977C29.9252 5.03861 29.5224 4.70652 29.051 4.70069H27.0653C26.3572 4.70069 26.3572 5.2506 26.4524 5.46527C26.5472 5.68015 29.2581 13.0803 30.3196 15.9127C30.4867 16.2624 30.6045 16.6317 30.6677 17.0125C30.5986 17.3876 30.4579 17.7484 30.2472 18.0694C30.167 18.2037 30.0749 18.3328 29.9716 18.4529C32.0172 17.8489 34.3913 15.6435 35.5855 13.2636C36.7875 9.9644 38.3736 5.56565 38.445 5.33914C38.5229 4.99311 38.5229 4.70652 37.9587 4.70652ZM28.36 19.1231C28.173 19.1202 27.9888 19.1034 27.8075 19.0799C27.58 19.046 27.1483 19.0799 27.1483 19.4639V21.1134C27.1483 21.7464 27.4591 21.7926 27.6177 21.835C28.1302 21.9472 28.6532 22.0012 29.1769 21.9985C29.7956 22.0154 30.4084 21.8892 30.9728 21.6319C31.4848 21.3738 31.9421 21.0132 32.3135 20.5747C32.7361 20.0967 33.0936 19.5645 33.3757 18.9911C33.6805 18.3839 33.971 17.711 34.2472 16.9748L34.5696 16.0989C33.928 16.7315 31.0995 19.3862 28.36 19.1231ZM25.0996 6.67938C24.982 6.40151 24.8206 6.14402 24.6254 5.91459C24.4235 5.70572 24.1967 5.51951 23.9493 5.36489C23.6812 5.1843 23.3968 5.02968 23.0999 4.90437C22.7948 4.78631 22.4841 4.69468 22.1651 4.62361C21.8028 4.54297 21.4315 4.49164 21.0601 4.46586C20.6633 4.42576 20.2167 4.40289 19.7248 4.40289C16.4307 4.40289 14.5575 5.4368 14.1 7.50421C14.0161 7.83403 14.2464 8.15739 14.5863 8.18606H16.6148C17.1673 8.18606 17.1673 8.01732 17.377 7.54452C17.4691 7.28703 17.6334 7.06052 17.8516 6.89426C18.3701 6.56194 18.9829 6.40442 19.5957 6.45056C20.171 6.39028 20.7464 6.53368 21.2267 6.85165C21.5921 7.19248 21.808 7.66152 21.8282 8.16031C21.8282 8.84216 21.6186 9.29148 20.7663 9.29148C18.7524 9.21956 16.586 9.4461 15.3654 10.1448C14.1397 10.8898 13.412 12.2272 13.4525 13.653C13.4408 14.1969 13.5504 14.7412 13.7803 15.2366C13.9933 15.6664 14.3069 16.0444 14.6893 16.3362C15.0952 16.6633 15.5614 16.9067 16.0624 17.0497C16.6257 17.2043 17.2099 17.2785 17.7939 17.2704C18.583 17.2843 19.3681 17.1729 20.1217 16.9406C20.7869 16.6685 21.4165 16.3165 21.9949 15.8898V16.2762C21.9949 16.6544 22.1106 16.9956 22.5474 16.9956H24.8956C25.3702 16.9956 25.4798 16.6604 25.4798 16.2419V9.04522C25.4829 8.5959 25.4512 8.14846 25.3877 7.70206C25.3332 7.3523 25.2384 7.00919 25.0996 6.67938ZM21.8888 13.7505C21.8888 13.7505 21.282 15.0161 19.1265 15.0161C18.6116 15.0396 18.099 14.8985 17.6674 14.6157C17.282 14.3172 17.0753 13.8451 17.1149 13.3612C17.0663 12.7052 17.4288 12.0892 18.0276 11.8113C18.8989 11.4763 19.8285 11.3217 20.764 11.3531C21.3712 11.2643 21.9147 11.7344 21.9118 12.3444L21.8888 13.7505Z" fill="#333333"/>
<path fill-rule="evenodd" clip-rule="evenodd" d="M75.5835 9.12191C76.1389 10.0099 76.1389 11.1359 75.5835 12.026C75.031 12.8596 72.019 16.0611 71.0262 17.0898C70.1628 17.9799 68.9974 18.8822 67.844 18.8822H43.9268C40.6895 18.8822 40.4972 17.7827 40.4972 15.3312V5.32793C40.4972 2.81598 41.2418 2.08301 43.4578 2.08301H67.8987C69.0411 2.08301 70.065 2.66739 71.2135 3.84429C72.2174 4.84911 75.1836 8.52671 75.5835 9.12191Z" fill="#33CCCC"/>
<path fill-rule="evenodd" clip-rule="evenodd" d="M70.842 12.9067C70.117 14.8511 68.2065 16.0996 66.1262 15.9911C62.9432 15.9911 60.8197 13.8344 60.8197 10.6009C60.8197 7.36783 63.0294 5.10239 66.0136 5.10239C68.9975 5.10239 70.9859 7.15898 71.1124 10.475C71.1124 10.8985 71.0084 11.2741 70.4737 11.2741H63.7203C63.7661 13.0496 64.6213 14.0233 66.146 14.0233C66.9748 14.043 67.7371 13.5819 68.1025 12.8466C68.2462 12.6369 68.4857 12.5166 68.7383 12.5195H70.4797C70.7007 12.511 70.8767 12.7088 70.8362 12.9264L70.842 12.9067ZM45.9267 5.94989V5.88984C45.9267 5.56645 45.9267 5.25141 45.3745 5.25141H43.3685C42.8993 5.25141 42.8765 5.50325 42.8765 5.90145V8.53933C43.6675 7.44475 44.7153 6.55463 45.9267 5.94989ZM59.3582 15.4953V8.98575C59.3582 6.31962 58.176 4.98828 55.8107 4.98828C55.1515 4.99618 54.5098 5.1851 53.9544 5.53796C53.3416 5.91828 52.7949 6.39418 52.3345 6.94702C52.1276 6.34788 51.7217 5.83848 51.1861 5.50059C50.5764 5.16554 49.8861 5.00183 49.1922 5.03045C48.1682 5.03651 47.1783 5.37735 46.3694 5.99915C46.1913 6.17643 42.8705 8.74838 42.8705 11.4316V15.5066C42.8705 15.6325 42.8043 16.1283 43.3629 16.1283H45.4457C46.0931 16.1283 46.033 15.7044 46.033 15.53V8.93171C46.3811 8.46183 47.0922 7.34788 48.2685 7.34788C48.6514 7.31361 49.0258 7.48795 49.2415 7.80323C49.4772 8.27247 49.5812 8.79681 49.5405 9.32096V15.5182C49.5405 15.6443 49.4745 16.14 50.0326 16.14H52.0931C52.7377 16.14 52.6771 15.7162 52.6771 15.5381V8.90821C53.0536 8.44209 53.7821 7.32442 54.9159 7.32442C55.3039 7.29302 55.6781 7.46552 55.9056 7.77996C56.1446 8.24984 56.2504 8.77397 56.2078 9.29831V15.4953C56.2078 15.6217 56.1412 16.1165 56.6997 16.1165H58.783C59.4361 16.0855 59.3582 15.6672 59.3582 15.4953ZM66.0251 7.15297C64.7591 7.15297 63.9045 8.0289 63.7174 9.46973H68.2462C68.1313 8.20951 67.4462 7.15297 66.0251 7.15297Z" fill="white"/>
</g>
<defs>
<clipPath id="clip0_702_23631">
<rect width="76" height="22" fill="white"/>
</clipPath>
</defs>
</svg>
