<svg width="40" height="32" viewBox="0 0 40 32" fill="none" xmlns="http://www.w3.org/2000/svg">
<path fill-rule="evenodd" clip-rule="evenodd" d="M28.7486 8.91207H22.6028V0.511241C22.6028 0.230682 22.8346 0 23.1166 0H24.0369C24.0391 1.37649 24.589 2.69672 25.5681 3.67146C26.5499 4.64559 27.8768 5.19286 29.2624 5.19286V8.91207H28.7486ZM29.2624 11.8775C29.2624 15.3811 28.458 17.992 26.8486 19.6936C25.2397 21.3952 22.7548 22.2439 19.404 22.2439C16.272 22.2439 13.8966 21.3952 12.2769 19.6936C10.6573 17.992 9.84851 15.4271 9.84851 11.9966V0.488138C9.84851 0.219893 10.0674 0 10.3391 0H16.0169C16.2865 0.00213498 16.5081 0.219893 16.5081 0.488138V12.2482C16.5081 13.6478 16.7692 14.7272 17.2975 15.4857C18.117 16.565 19.583 16.9256 20.8107 16.3509C21.2063 16.1648 21.5542 15.8923 21.8281 15.5549C22.3461 14.8403 22.6028 13.7905 22.6028 12.3989V10.199H29.2624V11.8775Z" fill="#1F3E79"/>
<path fill-rule="evenodd" clip-rule="evenodd" d="M25.3472 0H28.7486C29.0327 0 29.2624 0.230682 29.2624 0.511241V3.90001C27.1015 3.90001 25.3472 2.15643 25.3472 0.0042583V0Z" fill="#F4821F"/>
<path fill-rule="evenodd" clip-rule="evenodd" d="M2.22167 30.8605C3.7221 30.8605 4.44456 30.0289 4.44456 28.8099V25.874H3.37366V28.7799C3.37366 30.3131 1.06237 30.3131 1.06237 28.7799V25.874H0V28.8184C0 30.0213 0.722775 30.8605 2.22167 30.8605ZM10.9218 30.7687V29.8534H8.54408L10.8712 26.7089V25.874H7.17075V26.7923H9.49792L7.17075 29.9252V30.7687H10.9218ZM15.9334 30.8605C16.7946 30.8765 17.5927 30.4138 17.996 29.6536L17.0894 29.2227C16.8668 29.6536 16.4215 29.9294 15.9288 29.9337C14.547 29.8664 13.8837 28.2164 14.8375 27.2178C15.1225 26.9174 15.5182 26.7377 15.9288 26.7174C16.4215 26.7262 16.8668 27.0008 17.0894 27.4318L17.996 26.989C17.5927 26.2331 16.7946 25.7691 15.9334 25.7936C14.0815 25.7403 12.792 27.6115 13.5093 29.3115C13.9212 30.2759 14.8835 30.8896 15.9334 30.8605ZM25.0957 30.7687L23.1966 25.874H21.8867L19.979 30.7687H21.1758L21.4834 29.9413H23.5999L23.9032 30.7687H25.0957ZM23.3106 29.0226H21.7727L22.5417 26.9174L23.3106 29.0226ZM32.1784 32.0004L30.3719 28.9062C31.0352 28.7468 31.4891 28.1331 31.4471 27.4563C31.4806 26.5422 30.7085 25.8024 29.7921 25.8782H27.4863V30.7729H28.5362V29.0311H29.305L30.973 31.9961L32.1741 32.0004H32.1784ZM29.6373 28.1161H28.5404V26.7965H29.6373C30.032 26.7508 30.3804 27.0554 30.3804 27.4563C30.3804 27.8531 30.032 28.1619 29.6373 28.1161ZM36.1145 30.7729C37.6567 30.7729 38.7276 29.8033 38.7276 28.3298C38.7276 26.8511 37.6567 25.8782 36.1145 25.8782H34.169V30.7729H36.1145ZM36.1145 29.8534H35.2198V26.7965H36.1145C36.9888 26.7292 37.7189 27.4563 37.6567 28.3298C37.6942 29.1896 36.976 29.8994 36.1102 29.8534H36.1145ZM40 25.7821V25.7936C40 26.6083 39.0126 27.0138 38.4374 26.4416C37.8618 25.8654 38.2697 24.8838 39.0849 24.8838H40V25.7821Z" fill="#1F3E79"/>
</svg>
