<svg width="80" height="80" viewBox="0 0 80 80" fill="none" xmlns="http://www.w3.org/2000/svg">
<mask id="mask0_106_15476" style="mask-type:luminance" maskUnits="userSpaceOnUse" x="0" y="0" width="80" height="80">
<path d="M66.6667 0H13.3333C5.96954 0 0 5.96954 0 13.3333V66.6667C0 74.0305 5.96954 80 13.3333 80H66.6667C74.0305 80 80 74.0305 80 66.6667V13.3333C80 5.96954 74.0305 0 66.6667 0Z" fill="white"/>
</mask>
<g mask="url(#mask0_106_15476)">
<path d="M66.6667 0H13.3333C5.96954 0 0 5.96954 0 13.3333V66.6667C0 74.0305 5.96954 80 13.3333 80H66.6667C74.0305 80 80 74.0305 80 66.6667V13.3333C80 5.96954 74.0305 0 66.6667 0Z" fill="url(#paint0_linear_106_15476)"/>
<path d="M64.1673 54.9997C67.389 54.9997 70.0007 52.388 70.0007 49.1663C70.0007 45.9447 67.389 43.333 64.1673 43.333C60.9457 43.333 58.334 45.9447 58.334 49.1663C58.334 52.388 60.9457 54.9997 64.1673 54.9997Z" fill="white"/>
<path d="M14.166 16.667H58.3327C71.666 16.667 81.666 23.167 81.666 39.167" stroke="white" stroke-width="2" stroke-linecap="round"/>
</g>
<defs>
<linearGradient id="paint0_linear_106_15476" x1="-13.3333" y1="46.6667" x2="82.5" y2="10.8333" gradientUnits="userSpaceOnUse">
<stop stop-color="#8220FF"/>
<stop offset="1" stop-color="#FF8B00"/>
</linearGradient>
</defs>
</svg>
