<svg width="80" height="80" viewBox="0 0 80 80" fill="none" xmlns="http://www.w3.org/2000/svg">
<g clip-path="url(#clip0_106_15483)">
<path d="M66.6667 0H13.3333C5.96954 0 0 5.96954 0 13.3333V66.6667C0 74.0305 5.96954 80 13.3333 80H66.6667C74.0305 80 80 74.0305 80 66.6667V13.3333C80 5.96954 74.0305 0 66.6667 0Z" fill="#363844"/>
<path d="M40.6352 68.3335C30.7037 68.3942 17.2425 55.3888 13.422 46.9395L13.4091 46.9092L13.3318 46.7372C11.3944 42.2088 10.9436 38.4142 13.0742 33.4535C16.3022 25.8768 32.6282 8.28255 44.4043 12.239C52.821 15.0673 87.3845 35.7657 54.2148 61.961C49.9845 65.2978 45.6898 68.3082 40.6352 68.3335ZM25.7547 44.7765C29.583 51.3538 38.2007 59.0317 44.9608 54.7767C58.7748 46.0743 58.5842 37.6807 51.1618 30.438C42.5392 22.0215 37.1315 23.4558 30.2553 30.4962C28.6272 32.1633 27.254 33.2587 25.618 36.3652C24.4407 38.6142 24.1985 42.1077 25.7547 44.7765Z" fill="#53B7D1"/>
</g>
<defs>
<clipPath id="clip0_106_15483">
<rect width="80" height="80" fill="white"/>
</clipPath>
</defs>
</svg>
