<svg width="80" height="80" viewBox="0 0 80 80" fill="none" xmlns="http://www.w3.org/2000/svg">
<rect width="80" height="80" rx="20" fill="#DA002B"/>
<path fill-rule="evenodd" clip-rule="evenodd" d="M39.9869 67C29.4018 67 20.7899 58.3866 20.7899 47.7997C20.7899 41.9627 23.3986 36.5104 27.9637 32.8309C29.268 31.7772 31.1744 31.9947 32.2279 33.2992C33.2814 34.6038 33.064 36.5104 31.7597 37.5641C28.6326 40.0728 26.8433 43.8025 26.8433 47.7997C26.8433 55.0416 32.7295 60.9288 39.9702 60.9288C47.2109 60.9288 53.0971 55.0416 53.0971 47.7997C53.0971 43.8025 51.3078 40.0728 48.1808 37.5641C46.8764 36.5104 46.6758 34.6038 47.7125 33.2992C48.766 31.9947 50.6724 31.794 51.9767 32.8309C56.5251 36.4937 59.1505 41.946 59.1505 47.7997C59.1839 58.3866 50.572 67 39.9869 67Z" fill="white"/>
<path fill-rule="evenodd" clip-rule="evenodd" d="M52.5446 20.4551C53.8155 19.368 53.9827 17.4613 52.8958 16.1902C51.8088 14.9191 49.9025 14.7519 48.6316 15.839C39.2839 23.7666 36.6418 32.2629 36.0733 37.9995C35.4378 44.3216 37.1268 48.7871 37.2104 48.9878C37.8124 50.5265 39.5849 51.229 41.1234 50.6269C42.6618 50.0415 43.431 48.3188 42.8458 46.7801C42.6953 46.3286 41.6083 42.9669 42.1267 38.3173C42.8625 31.6943 46.3741 25.69 52.5446 20.4551Z" fill="white"/>
<path fill-rule="evenodd" clip-rule="evenodd" d="M44.7697 15.4374C44.7697 15.4374 41.7597 21.9768 36.0909 23.7162C30.4388 25.4556 24.2684 21.7427 24.2684 21.7427C24.2684 21.7427 27.2784 15.2032 32.9472 13.4638C38.5992 11.7244 44.7697 15.4374 44.7697 15.4374Z" fill="white"/>
</svg>
