<svg width="80" height="80" viewBox="0 0 80 80" fill="none" xmlns="http://www.w3.org/2000/svg">
<g clip-path="url(#clip0_106_15486)">
<path d="M66.6667 0H13.3333C5.96954 0 0 5.96954 0 13.3333V66.6667C0 74.0305 5.96954 80 13.3333 80H66.6667C74.0305 80 80 74.0305 80 66.6667V13.3333C80 5.96954 74.0305 0 66.6667 0Z" fill="#363844"/>
<path d="M33.435 15.9751C33.1125 15.4554 32.692 15.0027 32.1963 14.642C31.6953 14.3021 31.1466 14.0373 30.5681 13.8562C29.9393 13.6517 29.29 13.5157 28.6315 13.4505C27.8615 13.3734 27.0878 13.3358 26.314 13.3381H19.6143C19.4615 13.3238 19.3075 13.3396 19.1608 13.3847C19.0141 13.4298 18.878 13.5031 18.76 13.6007C18.6418 13.6982 18.5443 13.8179 18.473 13.953C18.4015 14.088 18.3576 14.2358 18.3436 14.3878C18.3436 14.4 18.3436 14.411 18.3436 14.422V25.2977C19.2725 27.2795 20.815 28.9137 22.7455 29.9607V27.7942C22.7171 27.4573 22.824 27.123 23.0426 26.8643C23.2615 26.6055 23.5743 26.4433 23.9128 26.4133H25.9256C28.6675 26.4133 30.7598 25.843 32.2025 24.7025C33.6451 23.562 34.3775 21.8675 34.3996 19.619C34.4021 18.9728 34.3258 18.3285 34.1723 17.7005C34.019 17.0905 33.7701 16.5083 33.435 15.9751ZM29.5088 21.5375C29.2755 21.9375 28.9283 22.2598 28.5111 22.4638C28.059 22.6787 27.5706 22.8075 27.0708 22.8438C26.5218 22.9115 25.969 22.9448 25.4156 22.944H23.4863C23.0243 22.944 22.7356 22.5702 22.7356 22.024V17.56C22.7296 17.4727 22.7413 17.3852 22.7695 17.3023C22.7976 17.2193 22.842 17.1428 22.9 17.077C22.958 17.0112 23.0285 16.9573 23.1073 16.9187C23.1861 16.88 23.272 16.857 23.3598 16.8513C23.4006 16.8473 23.4418 16.8473 23.4826 16.8513H25.412C26.037 16.8513 26.6268 16.8692 27.1815 16.905C27.675 16.9288 28.1593 17.0467 28.6081 17.2522C29.0206 17.4348 29.3646 17.7423 29.5911 18.1307C29.8506 18.653 29.97 19.233 29.9378 19.8145C29.9515 20.4155 29.8035 21.009 29.5088 21.5338V21.5375ZM22.7503 30.6182C21.098 30.0255 19.594 29.0847 18.3413 27.8602V33.0902C18.3276 33.1872 18.3331 33.2858 18.358 33.3807C18.3826 33.4755 18.426 33.5647 18.4853 33.6428C18.5446 33.721 18.6188 33.7868 18.7038 33.8365C18.7888 33.8862 18.8826 33.9187 18.9803 33.9322C18.9905 33.9333 19.0008 33.9333 19.011 33.9322H22.0388C22.8436 33.9322 22.7491 33.0767 22.7491 33.0767L22.7503 30.6182ZM64.3671 19.0398H61.7546C61.5055 19.0233 61.2583 19.095 61.0571 19.2425C60.856 19.3898 60.714 19.6035 60.6561 19.8452L57.621 28.1545C57.621 28.1545 54.9408 20.5783 54.7405 19.9942C54.6838 19.7237 54.536 19.4805 54.3215 19.3047C54.107 19.129 53.8386 19.0313 53.5608 19.0277H51.156C50.2958 19.0277 50.2958 19.6937 50.4126 19.9538C50.5293 20.2142 53.8151 29.181 55.1018 32.6123C55.3043 33.0345 55.4461 33.4828 55.5233 33.9443C55.4408 34.4002 55.2678 34.835 55.0145 35.2237C54.917 35.3887 54.8051 35.5448 54.6803 35.6905C57.1588 34.9573 60.0393 32.2862 61.4868 29.401C62.9466 25.4038 64.8698 20.0737 64.957 19.8012C65.0505 19.3857 65.0505 19.0398 64.3671 19.0398ZM52.724 36.5142C52.4996 36.5078 52.2756 36.4898 52.053 36.4603C51.779 36.42 51.2568 36.4603 51.2568 36.9272V38.9252C51.2568 39.6913 51.6316 39.745 51.8256 39.7988C52.4461 39.9335 53.0795 40.0002 53.7145 39.998C54.4651 40.0177 55.2101 39.865 55.892 39.552C56.5165 39.2373 57.0703 38.8 57.5201 38.2665C58.0315 37.6857 58.4641 37.0407 58.8066 36.348C59.2033 35.5528 59.5565 34.737 59.8648 33.904L60.2543 32.8445C59.4765 33.6095 56.0468 36.827 52.724 36.508V36.5142ZM48.7708 21.4313C48.6285 21.0945 48.434 20.782 48.1945 20.505C47.9523 20.2487 47.6776 20.0248 47.3773 19.839C47.0525 19.6193 46.7068 19.4318 46.3451 19.2793C45.9771 19.1375 45.5988 19.0238 45.2133 18.9397C44.772 18.8423 44.3238 18.7778 43.8726 18.7465C43.334 18.695 42.7931 18.6707 42.2518 18.6733C38.2598 18.6733 35.9865 19.9258 35.4318 22.4308C35.4105 22.516 35.4061 22.6047 35.4193 22.6915C35.4323 22.7785 35.4626 22.8618 35.5083 22.937C35.554 23.0122 35.6141 23.0777 35.6855 23.1297C35.7566 23.1817 35.8375 23.219 35.9235 23.2398C35.9575 23.2475 35.992 23.2532 36.0266 23.2568H38.4843C39.154 23.2568 39.154 23.0503 39.4083 22.4773C39.52 22.1655 39.7201 21.8925 39.9846 21.6915C40.613 21.2883 41.356 21.0988 42.102 21.1515C42.7976 21.0815 43.4963 21.2543 44.078 21.6402C44.5226 22.0532 44.785 22.6242 44.8078 23.2288C44.8078 24.0548 44.5535 24.601 43.5225 24.601C41.0771 24.5143 38.4498 24.7868 36.9691 25.6337C36.2403 26.076 35.6421 26.7022 35.2351 27.4485C34.8281 28.1948 34.6268 29.035 34.6515 29.8837C34.6343 30.5448 34.7696 31.2012 35.0473 31.8022C35.3081 32.3245 35.686 32.7802 36.152 33.1342C36.6415 33.5308 37.2066 33.8252 37.8133 33.9993C38.4988 34.1842 39.2068 34.2738 39.9171 34.2657C40.8745 34.2817 41.8285 34.1468 42.7435 33.8662C43.5503 33.5368 44.313 33.1097 45.0143 32.594V33.0608C45.0143 33.5203 45.1543 33.9333 45.684 33.9333H48.5311C49.1075 33.9333 49.2415 33.5263 49.2415 33.0205V24.2955C49.2453 23.7517 49.207 23.2083 49.1271 22.6703C49.0618 22.244 48.9421 21.8275 48.7708 21.4313ZM44.8766 29.9985C44.8766 29.9985 44.1393 31.5308 41.5268 31.5308C40.9001 31.5592 40.2808 31.388 39.7586 31.0422C39.5285 30.8645 39.3465 30.6327 39.2296 30.3673C39.1126 30.102 39.0643 29.8118 39.0888 29.5232C39.0601 29.1355 39.1506 28.7485 39.3481 28.413C39.5456 28.0777 39.8408 27.8098 40.1948 27.645C41.2521 27.2405 42.3805 27.0522 43.5126 27.0915C43.6701 27.0678 43.8308 27.0753 43.9853 27.1135C44.14 27.1517 44.2855 27.2197 44.4136 27.3138C44.5418 27.4078 44.65 27.526 44.7323 27.6617C44.8145 27.7973 44.869 27.9478 44.8926 28.1045C44.9021 28.1663 44.9066 28.2288 44.9061 28.2915L44.8766 29.9985Z" fill="white"/>
<path d="M64.5895 53.5457C64.9613 54.1434 65.1583 54.8334 65.1583 55.5374C65.1583 56.2412 64.9613 56.9312 64.5895 57.5291C63.8353 58.6764 59.7232 63.0654 58.3612 64.4799C57.1848 65.7021 55.5932 66.9394 54.0152 66.9394H21.3512C16.929 66.9394 16.666 65.4307 16.666 62.0646V48.3387C16.666 44.8897 17.6847 43.8862 20.7103 43.8862H54.0928C55.6553 43.8862 57.0518 44.6862 58.6215 46.3014C59.9945 47.6814 64.0512 52.7304 64.5895 53.5457Z" fill="#33CCCC"/>
<path d="M24.0846 49.194V49.111C24.0846 48.6654 24.0846 48.2349 23.3303 48.2349H20.5926C19.9503 48.2349 19.9199 48.5824 19.9199 49.1262V52.7455C21.0008 51.2425 22.4298 50.024 24.0846 49.194Z" fill="white"/>
<path d="M42.4285 62.2909V62.0957V53.3567C42.4285 49.6999 40.8138 47.8716 37.5843 47.8716C36.6857 47.8816 35.8078 48.1429 35.05 48.6259C34.2125 49.1487 33.4648 49.8029 32.8355 50.5636C32.5515 49.7437 31.9983 49.0441 31.266 48.5789C30.4338 48.1197 29.4917 47.8976 28.5422 47.9366C27.1455 47.9424 25.7898 48.4096 24.686 49.2654C24.4452 49.5062 19.9097 53.0384 19.9097 56.7199V62.3116C19.9097 62.4861 19.8183 63.1642 20.5808 63.1642H23.4252C24.3082 63.1642 24.2252 62.5843 24.2252 62.3421V53.2819C24.7013 52.6398 25.6743 51.1089 27.2812 51.1089C27.5383 51.0851 27.7972 51.1306 28.0308 51.2406C28.2645 51.3506 28.4645 51.5211 28.6098 51.7346C28.9325 52.3789 29.0733 53.0991 29.0168 53.8176V60.8764V62.3241C29.0168 62.4984 28.9268 63.1767 29.6895 63.1767H32.5033C33.3863 63.1767 33.3033 62.5968 33.3033 62.3546V62.1581V53.2514C33.8168 52.6106 34.8133 51.0784 36.3593 51.0784C36.6193 51.0572 36.8805 51.1036 37.1172 51.2132C37.354 51.3229 37.5583 51.4919 37.7102 51.7041C38.0383 52.3467 38.182 53.0678 38.1255 53.7871V60.8459V62.2936C38.1255 62.4681 38.0355 63.1476 38.7967 63.1476H41.6437C42.5337 63.0992 42.4285 62.5261 42.4285 62.2909Z" fill="white"/>
<path d="M58.1162 58.7448C57.6337 60.0451 56.7481 61.1571 55.5887 61.9186C54.4294 62.68 53.0571 63.051 51.6721 62.9773C47.3261 62.9773 44.4277 60.0195 44.4277 55.5821C44.4277 51.1448 47.4437 48.0293 51.5212 48.0293C55.5986 48.0293 58.3129 50.8556 58.4859 55.4023C58.4859 55.9835 58.3474 56.4956 57.6111 56.4956H48.3904C48.4499 58.933 49.6194 60.2686 51.7024 60.2686C52.2554 60.2826 52.8007 60.1381 53.2741 59.8521C53.7474 59.5663 54.1289 59.1508 54.3737 58.6548C54.4701 58.5145 54.5999 58.4001 54.7514 58.3223C54.9029 58.2446 55.0712 58.2056 55.2416 58.2091H57.6181C57.7441 58.2031 57.8674 58.2475 57.9609 58.3323C58.0542 58.4171 58.1102 58.5356 58.1162 58.6618C58.1174 58.697 58.1151 58.7321 58.1094 58.767L58.1162 58.7448ZM51.5364 50.8556C49.8091 50.8556 48.6396 52.0555 48.3821 54.039H54.5702C54.4111 52.2936 53.4754 50.8445 51.5364 50.8445V50.8556Z" fill="white"/>
</g>
<defs>
<clipPath id="clip0_106_15486">
<rect width="80" height="80" fill="white"/>
</clipPath>
</defs>
</svg>
