<svg width="80" height="80" viewBox="0 0 80 80" fill="none" xmlns="http://www.w3.org/2000/svg">
<g clip-path="url(#clip0_106_15498)">
<path d="M68 0H12C5.37258 0 0 5.37258 0 12V68C0 74.6274 5.37258 80 12 80H68C74.6274 80 80 74.6274 80 68V12C80 5.37258 74.6274 0 68 0Z" fill="#39A83E"/>
<mask id="mask0_106_15498" style="mask-type:luminance" maskUnits="userSpaceOnUse" x="10" y="35" width="60" height="17">
<path d="M70 35H10V51.6667H70V35Z" fill="white"/>
</mask>
<g mask="url(#mask0_106_15498)">
<path d="M52.8431 40.2567C53.2126 41.3672 54.1308 42.0742 55.211 42.0874C56.472 42.1032 57.7356 42.0874 58.9966 42.0874C59.1295 42.0874 59.2624 42.0952 59.3953 42.0874C59.6358 42.0704 59.7819 42.1519 59.7659 42.4134C59.7394 42.8471 59.944 43.3754 59.681 43.6881C59.4178 44.0009 58.8836 43.7841 58.4785 43.7919C57.438 43.8117 56.3963 43.7657 55.3571 43.8037C53.1288 43.8879 51.2806 42.0059 50.9483 40.1411C50.5124 37.6994 52.5428 35.2956 54.5493 35.0932C54.8748 35.0471 55.2026 35.0172 55.5313 35.0039C56.7271 35.0039 57.923 35.0039 59.119 35.0039C59.7421 35.0039 59.762 35.0262 59.7686 35.6151C59.7686 35.8779 59.7553 36.1407 59.7686 36.4036C59.7833 36.6347 59.6491 36.7189 59.4629 36.7504C59.2899 36.7776 59.1148 36.7904 58.9395 36.7886C57.6993 36.7886 56.4591 36.7886 55.219 36.7886C54.0365 36.7886 53.3268 37.4457 52.8273 38.4221C53.0186 38.6152 53.2258 38.5404 53.4105 38.5404C55.2708 38.5469 57.1311 38.5404 58.9913 38.5404C59.1455 38.5404 59.3009 38.5482 59.4551 38.5404C59.6863 38.5272 59.778 38.6429 59.7686 38.8557C59.7488 39.2896 59.9415 39.8177 59.6916 40.1319C59.4418 40.4461 58.9023 40.2371 58.4956 40.2409C56.8361 40.2581 55.1738 40.2409 53.5155 40.2409L52.8431 40.2567Z" fill="white"/>
<path d="M29.1751 41.2847C29.1751 41.9629 29.1831 42.641 29.1751 43.3192C29.1751 43.7542 29.122 43.8067 28.6716 43.7962C28.2823 43.787 27.7933 43.9735 27.5301 43.6937C27.2976 43.4479 27.4718 42.984 27.4518 42.616C27.4358 42.336 27.5301 41.9787 27.3906 41.792C27.2073 41.5502 26.8153 41.7 26.5163 41.6974C25.2553 41.6842 23.9916 41.6974 22.7346 41.6974C22.0158 41.6974 22.0158 41.6974 22.0158 42.4399C22.0158 42.7895 22.0158 43.1404 22.0158 43.4914C22.0158 43.7107 21.9268 43.7922 21.7036 43.812C20.2871 43.9434 20.2871 43.9434 20.2871 42.5517C20.2871 41.5002 20.3136 40.4489 20.2871 39.3975C20.2166 37.3185 22.0331 35.4155 23.9598 35.083C26.2838 34.6887 28.3938 36.2474 28.96 38.1057C29.1016 38.5399 29.1761 38.9927 29.1805 39.4489C29.1805 40.0612 29.1805 40.6737 29.1805 41.2887L29.1751 41.2847ZM24.7225 39.981H26.7156C27.505 39.981 27.5766 39.8957 27.4265 39.1282C27.4013 38.9967 27.3641 38.8759 27.3348 38.7484C26.9946 37.2554 25.1863 36.229 23.5891 36.9874C22.5566 37.4775 22.0026 38.3344 22.0158 39.5014C22.0158 39.9705 22.0158 39.9772 22.4716 39.9797C23.2183 39.985 23.9705 39.981 24.7225 39.981Z" fill="white"/>
<path d="M10.0564 39.3911C10.0564 38.144 10.0564 36.8941 10.0564 35.6496C10.059 35.0241 10.071 35.0096 10.6729 35.0083C12.4215 35.0005 14.1689 34.9886 15.9175 35.0136C16.7197 35.0146 17.4889 35.3295 18.0572 35.8893C18.6255 36.4491 18.9469 37.2086 18.951 38.0021C18.9465 38.7945 18.6277 39.5533 18.063 40.1155C17.4985 40.6776 16.7332 40.998 15.9321 41.0076C14.6937 41.026 13.454 41.0076 12.2116 41.0076C11.7864 41.0076 11.7811 41.0168 11.7784 41.4413C11.7784 42.0985 11.7651 42.7555 11.7784 43.4126C11.7784 43.6938 11.6881 43.8186 11.3984 43.799C10.9812 43.7701 10.4683 43.958 10.1706 43.7228C9.8504 43.4678 10.0657 42.9421 10.0564 42.54C10.0404 41.4926 10.0564 40.4425 10.0564 39.3911ZM13.9602 39.3096C14.5356 39.3096 15.111 39.2978 15.6876 39.3096C15.93 39.3163 16.1713 39.2748 16.3972 39.1875C17.116 38.9168 17.4415 38.0231 17.043 37.4068C16.7772 37.0006 16.4091 36.73 15.9055 36.7246C14.6233 36.7128 13.3397 36.7246 12.0522 36.7168C11.8502 36.7168 11.7864 36.8008 11.7864 36.9888C11.7864 37.667 11.7864 38.3463 11.7864 39.0245C11.7864 39.2636 11.8927 39.3163 12.1093 39.3136C12.7205 39.3031 13.3397 39.3096 13.9602 39.3096Z" fill="white"/>
<path d="M49.5374 41.1542C49.5374 41.9206 49.5374 42.6867 49.5374 43.4529C49.5374 43.6999 49.4484 43.8142 49.1892 43.8037C48.8796 43.7919 48.5687 43.8037 48.2591 43.8037C47.8604 43.7906 47.8192 43.7446 47.8021 43.3372C47.7954 43.2057 47.8021 43.0744 47.8021 42.9429C47.8021 41.7391 47.8021 40.5349 47.8021 39.3302C47.7911 38.7594 47.5927 38.2077 47.2367 37.7584C46.8807 37.3092 46.3866 36.9867 45.8287 36.8397C45.1747 36.6659 44.4787 36.7384 43.8757 37.0434C43.2727 37.3484 42.8057 37.8642 42.5654 38.4904C42.4711 38.7817 42.4314 39.0877 42.4484 39.3932C42.4391 40.6194 42.4484 41.8456 42.4484 43.0731C42.4484 43.2044 42.4484 43.3359 42.4484 43.4672C42.4366 43.6671 42.3396 43.7997 42.1229 43.8024C41.7469 43.8024 41.3709 43.8024 40.9934 43.8024C40.9494 43.8056 40.9051 43.7996 40.8634 43.7846C40.8219 43.7697 40.7839 43.7464 40.7521 43.7159C40.7202 43.6856 40.6952 43.6489 40.6786 43.6084C40.6621 43.5677 40.6544 43.5242 40.6559 43.4804C40.6454 43.3714 40.6559 43.2609 40.6559 43.1519C40.6559 41.9691 40.6347 40.7864 40.6559 39.6036C40.6759 38.7059 40.8287 37.8334 41.3602 37.0632C42.2239 35.8161 43.3906 35.0696 44.9319 35.0196C45.9992 34.9779 47.0466 35.3154 47.8842 35.9711C48.7219 36.6267 49.2946 37.5572 49.4989 38.5942C49.5349 38.8326 49.5469 39.0737 49.5347 39.3144C49.5347 39.9282 49.5347 40.5406 49.5347 41.1542H49.5374Z" fill="white"/>
<path d="M33.9943 42.2753C33.9755 41.9478 33.9785 41.6195 34.0036 41.2923C34.0488 40.9533 33.8495 40.8915 33.605 40.8231C32.8423 40.6116 32.2243 40.1778 31.673 39.622C30.8756 38.8203 30.509 37.8478 30.4251 36.7545C30.4 36.3395 30.4 35.9235 30.4251 35.5085C30.4438 35.0801 30.5196 35.0183 30.9368 35.0091C31.2238 35.0091 31.5121 34.996 31.7991 35.0091C32.1366 35.025 32.2098 35.1025 32.219 35.452C32.231 35.8673 32.2443 36.284 32.219 36.698C32.142 38.0121 33.4455 39.3013 34.834 39.2448C36.115 39.1923 37.198 38.4786 37.5141 37.334C37.6311 36.9055 37.5766 36.4653 37.5793 36.029C37.5793 34.9053 37.4836 35.0078 38.6116 35.0065C38.7446 34.9985 38.8778 35.0011 39.0103 35.0145C39.089 35.0191 39.163 35.0535 39.2168 35.1105C39.2706 35.1675 39.3005 35.2426 39.3 35.3206C39.2775 36.4021 39.4488 37.4983 38.9013 38.526C38.3701 39.5676 37.4543 40.3675 36.3435 40.7601C35.812 40.9546 35.812 40.952 35.804 41.525C35.796 42.098 35.804 42.7076 35.804 43.2965C35.804 43.742 35.7495 43.7866 35.3176 43.7985C35.052 43.8065 34.7861 43.8051 34.5205 43.7985C34.0515 43.788 34.0141 43.7498 34.0061 43.2583C33.989 42.9311 33.9943 42.604 33.9943 42.2753Z" fill="white"/>
<path d="M65.5846 35.0066C66.8894 35.0066 68.1942 35.0066 69.4977 35.0066C69.9801 35.0066 69.9841 35.0158 69.9946 35.4666C70.0012 35.7504 70.0026 36.0343 69.9946 36.3183C69.9814 36.7374 69.9349 36.7834 69.4751 36.7899C68.9436 36.7979 68.4121 36.7899 67.8806 36.7899C67.5271 36.7899 67.1724 36.8004 66.8176 36.7899C66.5519 36.7808 66.4694 36.9004 66.4827 37.1436C66.4961 37.3866 66.4827 37.6244 66.4827 37.8649C66.4827 39.5928 66.4827 41.3201 66.4827 43.0469C66.4827 43.1783 66.4827 43.3098 66.4827 43.4411C66.4891 43.4901 66.4842 43.5399 66.4682 43.5866C66.4522 43.6334 66.4257 43.6759 66.3906 43.7111C66.3554 43.7463 66.3127 43.7729 66.2656 43.7893C66.2184 43.8056 66.1682 43.8109 66.1186 43.8053C65.7642 43.8053 65.4099 43.8053 65.0556 43.8053C64.8072 43.8053 64.6916 43.6843 64.6876 43.4464C64.6876 43.2939 64.6876 43.1416 64.6876 42.9878C64.6876 41.1729 64.6876 39.3579 64.6876 37.5443C64.6876 36.6678 64.7966 36.8098 63.9022 36.7993C63.1727 36.7899 62.4406 36.7993 61.7137 36.7993C61.2327 36.7926 61.1106 36.6849 61.1106 36.2328C61.1106 34.8199 60.9617 35.0251 62.2706 35.0171C63.3747 35.0001 64.4789 35.0066 65.5846 35.0066Z" fill="white"/>
<path d="M28.1259 49.9319C28.1471 50.0844 28.0701 50.2867 28.0062 50.4957C27.9557 50.6599 27.8296 50.8189 28.0421 51.0214C28.2547 51.2237 27.9504 51.3472 27.8481 51.4852C27.7631 51.5969 27.6369 51.7717 27.4761 51.6009C27.2834 51.3959 27.1001 51.4459 26.8914 51.5431C26.4371 51.7547 25.9799 51.6456 25.5414 51.5116C24.8226 51.2921 24.3681 50.5496 24.3894 49.7912C24.4054 49.1816 24.8026 48.3824 25.5852 48.1591C26.3984 47.9277 27.1452 48.0407 27.7366 48.7202C28.0262 49.0514 28.1152 49.4377 28.1259 49.9319ZM27.1147 50.0764C27.2329 49.4482 26.9632 48.9516 26.4277 48.8149C26.0144 48.7097 25.4644 49.0961 25.3474 49.5717C25.3136 49.7094 25.3076 49.8522 25.3299 49.9921C25.3522 50.1321 25.4024 50.2661 25.4776 50.3867C25.5527 50.5072 25.6514 50.6117 25.7677 50.6944C25.8841 50.7769 26.0157 50.8357 26.1552 50.8676C26.2616 50.8912 26.4211 50.9426 26.4901 50.7664C26.4264 50.5759 26.1461 50.5587 26.1341 50.3301C26.5619 49.7571 26.5619 49.7571 27.1147 50.0764Z" fill="white"/>
<path d="M47.9235 48.1816C48.8283 48.0974 48.827 48.0974 48.8283 48.8806C48.8283 49.3183 48.8178 49.7573 48.8376 50.1949C48.8536 50.5418 49.0396 50.7456 49.332 50.7941C49.7811 50.8691 50.0455 50.6733 50.0695 50.1949C50.0946 49.6481 50.0695 49.1001 50.084 48.5534C50.084 48.4141 50.003 48.2051 50.2036 48.1593C50.4363 48.0876 50.6868 48.0974 50.9131 48.1868C51.0275 48.2419 50.9796 48.3839 50.981 48.4878C50.981 49.0358 50.969 49.5838 50.981 50.1304C51.0181 51.3738 50.0681 51.7536 49.0875 51.6261C48.366 51.5328 47.9461 50.9913 47.9208 50.2566C47.9141 50.0594 47.9208 49.8624 47.9208 49.6653L47.9235 48.1816Z" fill="white"/>
<path d="M31.8182 49.4231C31.7902 49.7241 31.8647 50.0948 31.7755 50.4614C31.5882 51.2289 31.3265 51.5416 30.3485 51.6441C29.3705 51.7466 28.7447 51.1644 28.6928 50.2051C28.6597 49.6163 28.6928 49.0223 28.6835 48.4363C28.6835 48.2088 28.7633 48.1156 28.9878 48.1286C29.098 48.1346 29.2085 48.1346 29.3187 48.1286C29.5153 48.1168 29.5925 48.2088 29.5912 48.3994C29.5912 48.9014 29.5912 49.4034 29.5912 49.9054C29.58 50.1011 29.614 50.2966 29.6908 50.4771C29.736 50.5893 29.814 50.6853 29.9148 50.7533C30.0158 50.8211 30.1348 50.8578 30.2568 50.8583C30.3788 50.8589 30.4982 50.8224 30.5982 50.7534C30.6983 50.6846 30.7745 50.5866 30.8162 50.4733C30.8913 50.2926 30.9257 50.0979 30.9172 49.9028C30.9172 49.4218 30.9292 48.9408 30.9172 48.4573C30.9092 48.1944 30.997 48.0933 31.2587 48.1261C31.3688 48.1319 31.4793 48.1319 31.5895 48.1261C31.6222 48.1216 31.6553 48.1248 31.6863 48.1354C31.7175 48.1461 31.7455 48.1639 31.7683 48.1874C31.7912 48.2109 31.808 48.2393 31.8177 48.2704C31.8272 48.3016 31.8292 48.3344 31.8233 48.3666C31.8142 48.7003 31.8182 49.0289 31.8182 49.4231Z" fill="white"/>
<path d="M39.0481 51.4422C38.8474 51.6012 38.6628 51.5263 38.4928 51.5527C38.4394 51.5648 38.3843 51.5665 38.3304 51.5572C38.2768 51.5478 38.2253 51.5278 38.1796 51.4983C38.1338 51.4688 38.0944 51.4305 38.0639 51.3857C38.0336 51.3408 38.0126 51.2903 38.0024 51.2372C37.9108 50.9323 37.7219 50.8193 37.4084 50.856C37.2316 50.8713 37.0538 50.8713 36.8769 50.856C36.6576 50.8455 36.4783 50.8823 36.4264 51.132C36.3428 51.508 36.0823 51.6012 35.7303 51.5487C35.5944 51.5403 35.4581 51.5403 35.3223 51.5487C35.6478 50.7602 35.9508 50.036 36.2524 49.3145C36.3853 48.9938 36.5103 48.6667 36.6683 48.3578C36.8264 48.049 37.5453 48.0173 37.6754 48.3038C38.1526 49.3422 38.5976 50.4013 39.0481 51.4422ZM37.1479 49.392C37.0311 49.6312 36.8943 49.7995 36.9114 50.0347C37.0988 50.1385 37.2888 50.107 37.5201 50.0623C37.4178 49.8507 37.4138 49.6023 37.1479 49.392Z" fill="white"/>
<path d="M44.6296 49.8006C44.6296 49.363 44.6389 48.924 44.6296 48.4865C44.6216 48.2485 44.6721 48.1158 44.9511 48.125C45.4162 48.1421 45.8812 48.1171 46.3449 48.1381C46.6339 48.1453 46.9106 48.2556 47.1236 48.449C47.3366 48.6423 47.4716 48.9053 47.5037 49.1895C47.5339 49.4718 47.4646 49.7558 47.3074 49.9933C47.1502 50.231 46.9149 50.4075 46.6412 50.4931C46.3911 50.5793 46.1256 50.6141 45.8614 50.5956C45.6461 50.5813 45.5226 50.651 45.5384 50.8848C45.5437 50.9723 45.5437 51.0601 45.5384 51.1476C45.5212 51.542 45.5212 51.542 45.1397 51.5498C44.6416 51.5498 44.6389 51.5498 44.6362 51.0465C44.6362 50.6298 44.6362 50.2146 44.6362 49.798L44.6296 49.8006ZM45.5331 49.317C45.5331 49.8321 45.5331 49.8426 45.8932 49.8426C46.3144 49.8426 46.6041 49.6298 46.5816 49.3355C46.5589 49.041 46.2054 48.8096 45.7989 48.8215C45.3922 48.8333 45.5942 49.1526 45.5331 49.317Z" fill="white"/>
<path d="M40.9283 49.2039C41.1714 49.0212 41.2978 48.7399 41.4293 48.4746C41.5608 48.2091 41.7508 48.0802 42.0551 48.1289C42.2264 48.1564 42.4086 48.0894 42.6026 48.1959C42.4166 48.7321 42.0431 49.1684 41.7389 49.6284C41.4733 50.0026 41.3473 50.4564 41.3828 50.9124C41.3908 51.0437 41.3828 51.1752 41.3828 51.3066C41.3828 51.4722 41.3069 51.5444 41.1476 51.5457H40.6944C40.6674 51.5494 40.6399 51.5467 40.6141 51.5382C40.5883 51.5297 40.5646 51.5156 40.5451 51.4966C40.5256 51.4777 40.5108 51.4547 40.5018 51.4292C40.4926 51.4039 40.4894 51.3767 40.4924 51.3499C40.4824 51.1972 40.4824 51.0441 40.4924 50.8912C40.5496 50.4301 40.3848 50.0449 40.1311 49.6717C39.8041 49.1894 39.5039 48.6901 39.1836 48.1867C39.9011 47.9882 40.3796 48.1696 40.6453 48.8437C40.6811 48.9699 40.7303 49.1394 40.9283 49.2039Z" fill="white"/>
<path d="M52.6798 49.4422C52.6798 49.7708 52.6945 50.0993 52.6798 50.4265C52.6626 50.7248 52.7968 50.805 53.0718 50.792C53.404 50.7748 53.7363 50.792 54.0685 50.792C54.4006 50.792 54.2983 51.043 54.3143 51.219C54.3301 51.3952 54.3143 51.5607 54.0485 51.5568C53.3841 51.5463 52.7198 51.5488 52.0553 51.5568C51.8586 51.5568 51.7816 51.4805 51.7896 51.286C51.7896 50.3223 51.7896 49.3585 51.7896 48.3948C51.7896 48.1925 51.888 48.132 52.0753 48.132C52.1638 48.1378 52.2525 48.1378 52.341 48.132C52.5788 48.1148 52.7158 48.178 52.6971 48.4578C52.6745 48.7852 52.6971 49.115 52.6971 49.4435L52.6798 49.4422Z" fill="white"/>
<path d="M32.5398 48.2169C32.6342 48.1037 32.7285 48.1341 32.8123 48.1341C33.4952 48.1341 33.4088 48.0894 33.4115 48.7267C33.4115 49.3156 33.4195 49.9096 33.4115 50.4931C33.4115 50.7217 33.5085 50.7952 33.7265 50.7901C34.0785 50.7809 34.432 50.7901 34.7895 50.7901C35.1163 50.7901 35.038 51.0226 35.0552 51.2027C35.0725 51.3827 35.0738 51.5549 34.8013 51.5509C34.1185 51.5431 33.4342 51.5509 32.7512 51.5509C32.5783 51.5509 32.524 51.4642 32.524 51.3091C32.524 50.4366 32.524 49.5652 32.524 48.6926C32.5147 48.5231 32.4668 48.3456 32.5398 48.2169Z" fill="white"/>
<path d="M55.7557 48.7795C55.7146 49.2053 55.6681 49.6995 55.6149 50.195C55.6131 50.233 55.6032 50.2703 55.5861 50.3043C55.5691 50.3385 55.5451 50.3688 55.5157 50.3935C55.4864 50.4182 55.4521 50.4367 55.4152 50.4477C55.3784 50.4587 55.3396 50.4622 55.3014 50.4578C55.1299 50.4578 54.9931 50.3828 54.9837 50.195C54.9506 49.5903 54.7991 48.9963 54.8204 48.3853C54.8269 48.1895 54.9054 48.1107 55.0954 48.1225C55.1179 48.1225 55.1406 48.1225 55.1619 48.1225C55.7824 48.1015 55.7824 48.1015 55.7557 48.7795Z" fill="white"/>
<path d="M55.2757 51.5496C54.8305 51.5496 54.8305 51.5496 54.8345 51.1291C54.8345 50.7506 54.8345 50.7506 55.2504 50.7466C55.766 50.7466 55.766 50.7466 55.7607 51.1671C55.7567 51.5482 55.7567 51.5482 55.2757 51.5496Z" fill="white"/>
</g>
</g>
<defs>
<clipPath id="clip0_106_15498">
<rect width="80" height="80" fill="white"/>
</clipPath>
</defs>
</svg>
