<svg width="118" height="42" viewBox="0 0 118 42" fill="none" xmlns="http://www.w3.org/2000/svg">
<path d="M111.408 22.0175V23.0069C111.408 24.4637 111.035 25.5906 110.29 26.3876C109.572 27.1847 108.399 27.5832 106.77 27.5832C106.328 27.5832 105.887 27.542 105.445 27.4596C105.003 27.4046 104.603 27.2809 104.244 27.0885C103.913 26.9236 103.637 26.7037 103.416 26.4289C103.195 26.154 103.085 25.7967 103.085 25.3569C103.085 24.4224 103.347 23.7353 103.871 23.2955C104.396 22.8283 105.058 22.4984 105.859 22.3061C106.659 22.1137 107.557 22.0175 108.55 22.0175C109.517 22.0175 110.469 22.0175 111.408 22.0175ZM117.246 29.3973V15.9569C117.246 13.7581 116.487 12.0815 114.969 10.9271C113.478 9.74523 111.311 9.1543 108.468 9.1543C107.557 9.1543 106.618 9.27798 105.652 9.52535C104.658 9.77272 103.747 10.1025 102.919 10.5148C102.063 10.9271 101.359 11.4081 100.807 11.9578C100.255 12.5075 99.979 13.0984 99.979 13.7306C99.979 14.3353 100.186 14.9125 100.6 15.4622C101.014 16.0119 101.704 16.2868 102.671 16.2868C103.057 16.2868 103.416 16.1906 103.747 15.9982C104.078 15.7783 104.451 15.5309 104.865 15.2561C105.279 15.0087 105.762 14.7751 106.314 14.5552C106.894 14.3353 107.612 14.2253 108.468 14.2253C109.323 14.2253 109.986 14.349 110.455 14.5964C110.924 14.8438 111.159 15.2561 111.159 15.8332V17.4824C109.751 17.4824 108.233 17.5648 106.604 17.7297C104.976 17.8946 103.471 18.252 102.091 18.8017C100.683 19.3514 99.5235 20.1484 98.6126 21.1929C97.7016 22.2373 97.2461 23.6253 97.2461 25.3569C97.2461 26.5388 97.4531 27.597 97.8672 28.5315C98.2813 29.4385 98.861 30.1944 99.6063 30.799C100.352 31.4037 101.235 31.8572 102.256 32.1596C103.278 32.4894 104.423 32.6543 105.693 32.6543C106.19 32.6543 106.715 32.5993 107.267 32.4894C107.847 32.4069 108.399 32.2558 108.923 32.0359C109.448 31.816 109.931 31.5549 110.372 31.2525C110.814 30.9502 111.159 30.5792 111.408 30.1394C111.628 31.1014 112.001 31.761 112.526 32.1183C113.05 32.4756 113.63 32.6543 114.265 32.6543C115.176 32.6543 115.907 32.3382 116.459 31.7061C116.984 31.0739 117.246 30.3043 117.246 29.3973Z" fill="#DA002B"/>
<path d="M95.5211 11.7793C95.5211 11.3965 95.4253 11.0547 95.2338 10.7539C95.0696 10.4258 94.837 10.1387 94.536 9.89258C94.2623 9.64648 93.9613 9.46875 93.633 9.35938C93.2772 9.22266 92.9489 9.1543 92.6479 9.1543C91.9364 9.1543 91.3207 9.3457 90.8008 9.72852C90.2809 10.1113 89.8841 10.6309 89.6104 11.2871L85.1774 22.9355L81.0318 11.2871C80.7581 10.6309 80.3613 10.1113 79.8414 9.72852C79.3215 9.3457 78.7058 9.1543 77.9943 9.1543C77.6933 9.1543 77.365 9.22266 77.0092 9.35938C76.6809 9.46875 76.3798 9.64648 76.1062 9.89258C75.8326 10.1387 75.6 10.4258 75.4084 10.7539C75.2169 11.0547 75.1211 11.3965 75.1211 11.7793C75.1211 12.0801 75.1485 12.3535 75.2032 12.5996C75.2579 12.8457 75.3263 13.0918 75.4084 13.3379L82.099 30.2363L79.472 36.7988C79.3625 37.0723 79.2668 37.3594 79.1847 37.6602C79.1026 37.9609 79.0615 38.2617 79.0615 38.5625C79.0615 39.1914 79.3352 39.7793 79.8825 40.3262C80.4024 40.873 81.1823 41.1465 82.2221 41.1465C82.9609 41.1465 83.5629 40.9141 84.0281 40.4492C84.4933 39.957 84.8491 39.3965 85.0953 38.7676L95.2338 13.3379C95.4253 12.9277 95.5211 12.4082 95.5211 11.7793Z" fill="#DA002B"/>
<path d="M72.7555 29.5054V12.3989C72.7555 11.3971 72.4688 10.5983 71.8953 10.0026C71.3491 9.3798 70.6254 9.06841 69.7242 9.06841C68.823 9.06841 68.0993 9.3798 67.5531 10.0026C66.9796 10.5983 66.6929 11.3971 66.6929 12.3989V29.5054C66.6929 30.5073 66.9796 31.3061 67.5531 31.9018C68.0993 32.5245 68.823 32.8359 69.7242 32.8359C70.6254 32.8359 71.3491 32.5245 71.8953 31.9018C72.4688 31.3061 72.7555 30.5073 72.7555 29.5054ZM73.1242 3.62584C73.1242 3.19261 73.0286 2.77291 72.8375 2.36674C72.6736 1.98766 72.4278 1.64919 72.1001 1.35134C71.7724 1.05349 71.4037 0.809792 70.9941 0.62025C70.5845 0.430708 70.1612 0.335938 69.7242 0.335938C69.2873 0.335938 68.864 0.430708 68.4543 0.62025C68.0447 0.809792 67.676 1.05349 67.3483 1.35134C67.0206 1.64919 66.7748 2.0012 66.611 2.40736C66.4198 2.81352 66.3242 3.21968 66.3242 3.62584C66.3242 4.11324 66.4198 4.56001 66.611 4.96618C66.7748 5.37234 67.0206 5.73788 67.3483 6.06281C67.676 6.36066 68.0447 6.60436 68.4543 6.7939C68.864 6.98344 69.2873 7.07821 69.7242 7.07821C70.68 7.07821 71.4857 6.73975 72.1411 6.06281C72.7965 5.38588 73.1242 4.57355 73.1242 3.62584Z" fill="#DA002B"/>
<path d="M63.7383 25.5218C63.7383 24.3675 63.4795 23.3917 62.9618 22.5946C62.4442 21.8251 61.804 21.1792 61.0412 20.6569C60.2511 20.1072 59.4066 19.6675 58.5075 19.3376C57.6085 18.9803 56.7775 18.6368 56.0147 18.3069C55.2247 18.0046 54.5708 17.6885 54.0532 17.3587C53.5356 17.0563 53.2767 16.6578 53.2767 16.1631C53.2767 15.5859 53.4811 15.1599 53.8897 14.885C54.2984 14.6101 54.7751 14.4727 55.32 14.4727C55.8376 14.4727 56.3553 14.5689 56.8729 14.7613C57.3905 14.9537 57.8809 15.1599 58.3441 15.3797C58.8344 15.5996 59.2703 15.8058 59.6517 15.9982C60.0604 16.1631 60.4282 16.2455 60.7551 16.2455C61.4634 16.2455 62.0492 15.9707 62.5123 15.421C62.9755 14.8713 63.207 14.2528 63.207 13.5657C63.207 12.7961 62.9618 12.1365 62.4715 11.5868C61.9538 11.037 61.3136 10.5835 60.5508 10.2262C59.8152 9.8964 59.0115 9.63529 58.1397 9.44289C57.2407 9.2505 56.4234 9.1543 55.6878 9.1543C54.4891 9.1543 53.3857 9.33295 52.3777 9.69026C51.3969 10.0201 50.5388 10.5011 49.8032 11.1332C49.0676 11.7654 48.5091 12.5213 48.1277 13.4008C47.7191 14.2528 47.5147 15.2011 47.5147 16.2455C47.5147 17.3999 47.7735 18.3756 48.2912 19.1727C48.8088 19.9698 49.449 20.6294 50.2118 21.1517C51.0019 21.7014 51.8465 22.1411 52.7455 22.471C53.6445 22.8283 54.4755 23.1718 55.2383 23.5017C56.0283 23.804 56.6822 24.1201 57.1998 24.4499C57.7174 24.7523 57.9763 25.137 57.9763 25.6043C57.9763 26.154 57.7992 26.58 57.445 26.8824C57.1181 27.1847 56.4915 27.3359 55.5652 27.3359C54.8569 27.3359 54.2439 27.2259 53.7263 27.0061C53.2086 26.7862 52.7182 26.5525 52.2551 26.3052C51.8192 26.0303 51.3697 25.783 50.9066 25.5631C50.4434 25.3707 49.9258 25.2745 49.3537 25.2745C48.9178 25.2745 48.55 25.3707 48.2503 25.5631C47.9234 25.7555 47.6509 25.9891 47.433 26.2639C47.215 26.5388 47.038 26.8411 46.9017 27.171C46.7928 27.4733 46.7383 27.7344 46.7383 27.9543C46.7383 28.6414 47.0243 29.2736 47.5965 29.8508C48.1413 30.428 48.836 30.9227 49.6806 31.335C50.5251 31.7473 51.4378 32.0771 52.4186 32.3245C53.3993 32.5444 54.312 32.6543 55.1566 32.6543C56.437 32.6543 57.6085 32.4619 58.671 32.0771C59.7335 31.7198 60.6461 31.2251 61.409 30.5929C62.1718 29.9607 62.7439 29.2049 63.1253 28.3253C63.534 27.4733 63.7383 26.5388 63.7383 25.5218Z" fill="#DA002B"/>
<path d="M38.3216 22.0175V23.0069C38.3216 24.4637 37.949 25.5906 37.2036 26.3876C36.4859 27.1847 35.3127 27.5832 33.684 27.5832C33.2423 27.5832 32.8006 27.542 32.3589 27.4596C31.9172 27.4046 31.517 27.2809 31.1581 27.0885C30.8268 26.9236 30.5508 26.7037 30.3299 26.4289C30.1091 26.154 29.9987 25.7967 29.9987 25.3569C29.9987 24.4224 30.2609 23.7353 30.7854 23.2955C31.3099 22.8283 31.9724 22.4984 32.773 22.3061C33.5735 22.1137 34.4707 22.0175 35.4645 22.0175C36.4307 22.0175 37.3831 22.0175 38.3216 22.0175ZM44.1602 29.3973V15.9569C44.1602 13.7581 43.401 12.0815 41.8827 10.9271C40.392 9.74523 38.225 9.1543 35.3817 9.1543C34.4707 9.1543 33.5321 9.27798 32.566 9.52535C31.5722 9.77272 30.6612 10.1025 29.833 10.5148C28.9773 10.9271 28.2733 11.4081 27.7212 11.9578C27.1691 12.5075 26.8931 13.0984 26.8931 13.7306C26.8931 14.3353 27.1001 14.9125 27.5142 15.4622C27.9283 16.0119 28.6184 16.2868 29.5846 16.2868C29.9711 16.2868 30.3299 16.1906 30.6612 15.9982C30.9925 15.7783 31.3651 15.5309 31.7792 15.2561C32.1933 15.0087 32.6764 14.7751 33.2285 14.5552C33.8082 14.3353 34.5259 14.2253 35.3817 14.2253C36.2375 14.2253 36.9 14.349 37.3693 14.5964C37.8386 14.8438 38.0732 15.2561 38.0732 15.8332V17.4824C36.6653 17.4824 35.147 17.5648 33.5183 17.7297C31.8896 17.8946 30.3851 18.252 29.0049 18.8017C27.597 19.3514 26.4376 20.1484 25.5266 21.1929C24.6156 22.2373 24.1602 23.6253 24.1602 25.3569C24.1602 26.5388 24.3672 27.597 24.7813 28.5315C25.1954 29.4385 25.7751 30.1944 26.5204 30.799C27.2657 31.4037 28.1491 31.8572 29.1705 32.1596C30.1919 32.4894 31.3375 32.6543 32.6074 32.6543C33.1043 32.6543 33.6288 32.5993 34.1809 32.4894C34.7606 32.4069 35.3127 32.2558 35.8372 32.0359C36.3617 31.816 36.8448 31.5549 37.2864 31.2525C37.7281 30.9502 38.0732 30.5792 38.3216 30.1394C38.5425 31.1014 38.9152 31.761 39.4397 32.1183C39.9642 32.4756 40.5439 32.6543 41.1788 32.6543C42.0898 32.6543 42.8213 32.3382 43.3734 31.7061C43.8979 31.0739 44.1602 30.3043 44.1602 29.3973Z" fill="#DA002B"/>
<path d="M20.6797 29.2736V17.3587C20.6797 16.0669 20.4607 14.9125 20.0226 13.8955C19.6119 12.8786 19.037 12.0128 18.2978 11.2982C17.5859 10.611 16.7098 10.0888 15.6694 9.73149C14.6564 9.34669 13.5613 9.1543 12.384 9.1543C10.9603 9.1543 9.78304 9.37418 8.85217 9.81395C7.89392 10.2262 7.12733 10.8446 6.55238 11.6692C6.44286 10.9546 6.1417 10.3637 5.64889 9.8964C5.15607 9.40167 4.51268 9.1543 3.7187 9.1543C2.81521 9.1543 2.08968 9.47038 1.54211 10.1025C0.967162 10.7072 0.679688 11.518 0.679688 12.535V29.2736C0.679688 30.2906 0.967162 31.1014 1.54211 31.7061C2.11706 32.3382 2.85628 32.6543 3.75977 32.6543C4.66326 32.6543 5.38879 32.3382 5.93636 31.7061C6.51131 31.1014 6.79878 30.2906 6.79878 29.2736V18.4306C6.79878 17.2487 7.12733 16.2455 7.78441 15.421C8.44149 14.6239 9.39974 14.2253 10.6592 14.2253C11.7543 14.2253 12.6852 14.5689 13.4518 15.2561C14.2184 15.9157 14.6017 16.9739 14.6017 18.4306V29.2736C14.6017 30.2906 14.8891 31.1014 15.4641 31.7061C16.0117 32.3382 16.7372 32.6543 17.6407 32.6543C18.5442 32.6543 19.2697 32.3382 19.8173 31.7061C20.3922 31.1014 20.6797 30.2906 20.6797 29.2736Z" fill="#DA002B"/>
</svg>
